<svg width="103" height="90" viewBox="0 0 103 90" fill="none" xmlns="http://www.w3.org/2000/svg">
<mask id="mask0_75_1028" style="mask-type:alpha" maskUnits="userSpaceOnUse" x="0" y="0" width="103" height="90">
<rect width="103" height="90" fill="#D9D9D9"/>
</mask>
<g mask="url(#mask0_75_1028)">
<path d="M3.02109 85C2.58109 85 2.24109 84.8867 2.00109 84.66C1.77443 84.42 1.66109 84.08 1.66109 83.64V72.26C1.66109 71.82 1.77443 71.4867 2.00109 71.26C2.24109 71.02 2.58109 70.9 3.02109 70.9H6.90109C9.26109 70.9 11.0811 71.5067 12.3611 72.72C13.6544 73.9333 14.3011 75.6733 14.3011 77.94C14.3011 79.0733 14.1344 80.08 13.8011 80.96C13.4811 81.8267 13.0011 82.56 12.3611 83.16C11.7344 83.76 10.9611 84.22 10.0411 84.54C9.13443 84.8467 8.08776 85 6.90109 85H3.02109ZM4.22109 82.88H6.74109C7.56776 82.88 8.28109 82.78 8.88109 82.58C9.49443 82.3667 10.0011 82.06 10.4011 81.66C10.8144 81.2467 11.1211 80.7333 11.3211 80.12C11.5211 79.4933 11.6211 78.7667 11.6211 77.94C11.6211 76.2867 11.2144 75.0533 10.4011 74.24C9.58776 73.4267 8.36776 73.02 6.74109 73.02H4.22109V82.88ZM19.8755 85.2C19.1688 85.2 18.5355 85.0667 17.9755 84.8C17.4288 84.52 16.9955 84.1467 16.6755 83.68C16.3688 83.2133 16.2155 82.6867 16.2155 82.1C16.2155 81.38 16.4021 80.8133 16.7755 80.4C17.1488 79.9733 17.7555 79.6667 18.5955 79.48C19.4355 79.2933 20.5621 79.2 21.9755 79.2H22.9755V80.64H21.9955C21.1688 80.64 20.5088 80.68 20.0155 80.76C19.5221 80.84 19.1688 80.98 18.9555 81.18C18.7555 81.3667 18.6555 81.6333 18.6555 81.98C18.6555 82.42 18.8088 82.78 19.1155 83.06C19.4221 83.34 19.8488 83.48 20.3955 83.48C20.8355 83.48 21.2221 83.38 21.5555 83.18C21.9021 82.9667 22.1755 82.68 22.3755 82.32C22.5755 81.96 22.6755 81.5467 22.6755 81.08V78.78C22.6755 78.1133 22.5288 77.6333 22.2355 77.34C21.9421 77.0467 21.4488 76.9 20.7555 76.9C20.3688 76.9 19.9488 76.9467 19.4955 77.04C19.0555 77.1333 18.5888 77.2933 18.0955 77.52C17.8421 77.64 17.6155 77.6733 17.4155 77.62C17.2288 77.5667 17.0821 77.46 16.9755 77.3C16.8688 77.1267 16.8155 76.94 16.8155 76.74C16.8155 76.54 16.8688 76.3467 16.9755 76.16C17.0821 75.96 17.2621 75.8133 17.5155 75.72C18.1288 75.4667 18.7155 75.2867 19.2755 75.18C19.8488 75.0733 20.3688 75.02 20.8355 75.02C21.7955 75.02 22.5821 75.1667 23.1955 75.46C23.8221 75.7533 24.2888 76.2 24.5955 76.8C24.9021 77.3867 25.0555 78.1467 25.0555 79.08V83.88C25.0555 84.2933 24.9555 84.6133 24.7555 84.84C24.5555 85.0533 24.2688 85.16 23.8955 85.16C23.5221 85.16 23.2288 85.0533 23.0155 84.84C22.8155 84.6133 22.7155 84.2933 22.7155 83.88V82.92H22.8755C22.7821 83.3867 22.5955 83.7933 22.3155 84.14C22.0488 84.4733 21.7088 84.7333 21.2955 84.92C20.8821 85.1067 20.4088 85.2 19.8755 85.2ZM31.173 85.2C30.5996 85.2 29.993 85.14 29.353 85.02C28.713 84.9 28.1396 84.6933 27.633 84.4C27.4196 84.2667 27.2663 84.1133 27.173 83.94C27.093 83.7533 27.0596 83.5733 27.073 83.4C27.0996 83.2133 27.1663 83.0533 27.273 82.92C27.393 82.7867 27.5396 82.7 27.713 82.66C27.8996 82.62 28.0996 82.6533 28.313 82.76C28.8463 83.0133 29.3463 83.1933 29.813 83.3C30.2796 83.3933 30.7396 83.44 31.193 83.44C31.833 83.44 32.3063 83.3333 32.613 83.12C32.933 82.8933 33.093 82.6 33.093 82.24C33.093 81.9333 32.9863 81.7 32.773 81.54C32.573 81.3667 32.2663 81.24 31.853 81.16L29.853 80.78C29.0263 80.62 28.393 80.32 27.953 79.88C27.5263 79.4267 27.313 78.8467 27.313 78.14C27.313 77.5 27.4863 76.9467 27.833 76.48C28.193 76.0133 28.6863 75.6533 29.313 75.4C29.9396 75.1467 30.6596 75.02 31.473 75.02C32.0596 75.02 32.6063 75.0867 33.113 75.22C33.633 75.34 34.133 75.5333 34.613 75.8C34.813 75.9067 34.9463 76.0467 35.013 76.22C35.093 76.3933 35.113 76.5733 35.073 76.76C35.033 76.9333 34.953 77.0933 34.833 77.24C34.713 77.3733 34.5596 77.46 34.373 77.5C34.1996 77.5267 33.9996 77.4867 33.773 77.38C33.3596 77.1667 32.9596 77.0133 32.573 76.92C32.1996 76.8267 31.8396 76.78 31.493 76.78C30.8396 76.78 30.353 76.8933 30.033 77.12C29.7263 77.3467 29.573 77.6467 29.573 78.02C29.573 78.3 29.6663 78.5333 29.853 78.72C30.0396 78.9067 30.3263 79.0333 30.713 79.1L32.713 79.48C33.5796 79.64 34.233 79.9333 34.673 80.36C35.1263 80.7867 35.353 81.36 35.353 82.08C35.353 83.0533 34.973 83.82 34.213 84.38C33.453 84.9267 32.4396 85.2 31.173 85.2ZM38.5986 85.16C38.1986 85.16 37.8919 85.0533 37.6786 84.84C37.4653 84.6133 37.3586 84.2933 37.3586 83.88V72C37.3586 71.5867 37.4653 71.2733 37.6786 71.06C37.8919 70.8467 38.1986 70.74 38.5986 70.74C38.9986 70.74 39.3053 70.8467 39.5186 71.06C39.7453 71.2733 39.8586 71.5867 39.8586 72V77.18H39.5786C39.8719 76.4733 40.3253 75.94 40.9386 75.58C41.5653 75.2067 42.2719 75.02 43.0586 75.02C43.8453 75.02 44.4919 75.1667 44.9986 75.46C45.5053 75.7533 45.8853 76.2 46.1386 76.8C46.3919 77.3867 46.5186 78.1333 46.5186 79.04V83.88C46.5186 84.2933 46.4119 84.6133 46.1986 84.84C45.9853 85.0533 45.6786 85.16 45.2786 85.16C44.8786 85.16 44.5653 85.0533 44.3386 84.84C44.1253 84.6133 44.0186 84.2933 44.0186 83.88V79.16C44.0186 78.4 43.8719 77.8467 43.5786 77.5C43.2986 77.1533 42.8586 76.98 42.2586 76.98C41.5253 76.98 40.9386 77.2133 40.4986 77.68C40.0719 78.1333 39.8586 78.74 39.8586 79.5V83.88C39.8586 84.7333 39.4386 85.16 38.5986 85.16ZM54.6978 85.2C53.8711 85.2 53.1445 84.9933 52.5178 84.58C51.9045 84.1667 51.4978 83.6133 51.2978 82.92L51.5178 82.42V83.88C51.5178 84.2933 51.4111 84.6133 51.1978 84.84C50.9845 85.0533 50.6845 85.16 50.2978 85.16C49.8978 85.16 49.5911 85.0533 49.3778 84.84C49.1645 84.6133 49.0578 84.2933 49.0578 83.88V72C49.0578 71.5867 49.1645 71.2733 49.3778 71.06C49.5911 70.8467 49.8978 70.74 50.2978 70.74C50.6978 70.74 51.0045 70.8467 51.2178 71.06C51.4445 71.2733 51.5578 71.5867 51.5578 72V77.2H51.3178C51.5311 76.5467 51.9445 76.02 52.5578 75.62C53.1711 75.22 53.8845 75.02 54.6978 75.02C55.5645 75.02 56.3178 75.2267 56.9578 75.64C57.5978 76.0533 58.0978 76.64 58.4578 77.4C58.8178 78.1467 58.9978 79.0467 58.9978 80.1C58.9978 81.14 58.8178 82.0467 58.4578 82.82C58.0978 83.58 57.5911 84.1667 56.9378 84.58C56.2978 84.9933 55.5511 85.2 54.6978 85.2ZM53.9978 83.3C54.4911 83.3 54.9245 83.18 55.2978 82.94C55.6711 82.7 55.9578 82.3467 56.1578 81.88C56.3711 81.4 56.4778 80.8067 56.4778 80.1C56.4778 79.0333 56.2511 78.24 55.7978 77.72C55.3445 77.1867 54.7445 76.92 53.9978 76.92C53.5045 76.92 53.0711 77.04 52.6978 77.28C52.3245 77.5067 52.0311 77.86 51.8178 78.34C51.6178 78.8067 51.5178 79.3933 51.5178 80.1C51.5178 81.1533 51.7445 81.9533 52.1978 82.5C52.6511 83.0333 53.2511 83.3 53.9978 83.3ZM65.51 85.2C64.4967 85.2 63.6167 84.9933 62.87 84.58C62.1233 84.1667 61.5433 83.58 61.13 82.82C60.7167 82.0467 60.51 81.14 60.51 80.1C60.51 79.3133 60.6233 78.6133 60.85 78C61.09 77.3733 61.43 76.84 61.87 76.4C62.31 75.9467 62.8367 75.6067 63.45 75.38C64.0633 75.14 64.75 75.02 65.51 75.02C66.5233 75.02 67.4033 75.2267 68.15 75.64C68.8967 76.0533 69.4767 76.64 69.89 77.4C70.3033 78.16 70.51 79.06 70.51 80.1C70.51 80.8867 70.39 81.5933 70.15 82.22C69.9233 82.8467 69.59 83.3867 69.15 83.84C68.71 84.28 68.1833 84.62 67.57 84.86C66.9567 85.0867 66.27 85.2 65.51 85.2ZM65.51 83.3C66.0033 83.3 66.4367 83.18 66.81 82.94C67.1833 82.7 67.47 82.3467 67.67 81.88C67.8833 81.4 67.99 80.8067 67.99 80.1C67.99 79.0333 67.7633 78.24 67.31 77.72C66.8567 77.1867 66.2567 76.92 65.51 76.92C65.0167 76.92 64.5833 77.04 64.21 77.28C63.8367 77.5067 63.5433 77.86 63.33 78.34C63.13 78.8067 63.03 79.3933 63.03 80.1C63.03 81.1533 63.2567 81.9533 63.71 82.5C64.1633 83.0333 64.7633 83.3 65.51 83.3ZM75.7934 85.2C75.0868 85.2 74.4534 85.0667 73.8934 84.8C73.3468 84.52 72.9134 84.1467 72.5934 83.68C72.2868 83.2133 72.1334 82.6867 72.1334 82.1C72.1334 81.38 72.3201 80.8133 72.6934 80.4C73.0668 79.9733 73.6734 79.6667 74.5134 79.48C75.3534 79.2933 76.4801 79.2 77.8934 79.2H78.8934V80.64H77.9134C77.0868 80.64 76.4268 80.68 75.9334 80.76C75.4401 80.84 75.0868 80.98 74.8734 81.18C74.6734 81.3667 74.5734 81.6333 74.5734 81.98C74.5734 82.42 74.7268 82.78 75.0334 83.06C75.3401 83.34 75.7668 83.48 76.3134 83.48C76.7534 83.48 77.1401 83.38 77.4734 83.18C77.8201 82.9667 78.0934 82.68 78.2934 82.32C78.4934 81.96 78.5934 81.5467 78.5934 81.08V78.78C78.5934 78.1133 78.4468 77.6333 78.1534 77.34C77.8601 77.0467 77.3668 76.9 76.6734 76.9C76.2868 76.9 75.8668 76.9467 75.4134 77.04C74.9734 77.1333 74.5068 77.2933 74.0134 77.52C73.7601 77.64 73.5334 77.6733 73.3334 77.62C73.1468 77.5667 73.0001 77.46 72.8934 77.3C72.7868 77.1267 72.7334 76.94 72.7334 76.74C72.7334 76.54 72.7868 76.3467 72.8934 76.16C73.0001 75.96 73.1801 75.8133 73.4334 75.72C74.0468 75.4667 74.6334 75.2867 75.1934 75.18C75.7668 75.0733 76.2868 75.02 76.7534 75.02C77.7134 75.02 78.5001 75.1667 79.1134 75.46C79.7401 75.7533 80.2068 76.2 80.5134 76.8C80.8201 77.3867 80.9734 78.1467 80.9734 79.08V83.88C80.9734 84.2933 80.8734 84.6133 80.6734 84.84C80.4734 85.0533 80.1868 85.16 79.8134 85.16C79.4401 85.16 79.1468 85.0533 78.9334 84.84C78.7334 84.6133 78.6334 84.2933 78.6334 83.88V82.92H78.7934C78.7001 83.3867 78.5134 83.7933 78.2334 84.14C77.9668 84.4733 77.6268 84.7333 77.2134 84.92C76.8001 85.1067 76.3268 85.2 75.7934 85.2ZM84.7909 85.16C84.3776 85.16 84.0576 85.0533 83.8309 84.84C83.6176 84.6133 83.5109 84.2933 83.5109 83.88V76.32C83.5109 75.9067 83.6176 75.5933 83.8309 75.38C84.0443 75.1667 84.3443 75.06 84.7309 75.06C85.1176 75.06 85.4176 75.1667 85.6309 75.38C85.8443 75.5933 85.9509 75.9067 85.9509 76.32V77.58H85.7509C85.9376 76.78 86.3043 76.1733 86.8509 75.76C87.3976 75.3467 88.1243 75.1 89.0309 75.02C89.3109 74.9933 89.5309 75.0667 89.6909 75.24C89.8643 75.4 89.9643 75.6533 89.9909 76C90.0176 76.3333 89.9376 76.6067 89.7509 76.82C89.5776 77.02 89.3109 77.14 88.9509 77.18L88.5109 77.22C87.6976 77.3 87.0843 77.5533 86.6709 77.98C86.2576 78.3933 86.0509 78.98 86.0509 79.74V83.88C86.0509 84.2933 85.9443 84.6133 85.7309 84.84C85.5176 85.0533 85.2043 85.16 84.7909 85.16ZM94.9467 85.2C94.0934 85.2 93.3401 84.9933 92.6867 84.58C92.0467 84.1667 91.5467 83.58 91.1867 82.82C90.8267 82.0467 90.6467 81.14 90.6467 80.1C90.6467 79.0467 90.8267 78.1467 91.1867 77.4C91.5467 76.64 92.0467 76.0533 92.6867 75.64C93.3401 75.2267 94.0934 75.02 94.9467 75.02C95.7601 75.02 96.4667 75.22 97.0667 75.62C97.6801 76.02 98.0934 76.5467 98.3067 77.2H98.0867V72C98.0867 71.5867 98.1934 71.2733 98.4067 71.06C98.6201 70.8467 98.9267 70.74 99.3267 70.74C99.7267 70.74 100.033 70.8467 100.247 71.06C100.473 71.2733 100.587 71.5867 100.587 72V83.88C100.587 84.2933 100.48 84.6133 100.267 84.84C100.053 85.0533 99.7467 85.16 99.3467 85.16C98.9467 85.16 98.6401 85.0533 98.4267 84.84C98.2134 84.6133 98.1067 84.2933 98.1067 83.88V82.32L98.3267 82.92C98.1267 83.6133 97.7201 84.1667 97.1067 84.58C96.4934 84.9933 95.7734 85.2 94.9467 85.2ZM95.6467 83.3C96.1401 83.3 96.5734 83.18 96.9467 82.94C97.3201 82.7 97.6067 82.3467 97.8067 81.88C98.0201 81.4 98.1267 80.8067 98.1267 80.1C98.1267 79.0333 97.9001 78.24 97.4467 77.72C96.9934 77.1867 96.3934 76.92 95.6467 76.92C95.1534 76.92 94.7201 77.04 94.3467 77.28C93.9734 77.5067 93.6801 77.86 93.4667 78.34C93.2667 78.8067 93.1667 79.3933 93.1667 80.1C93.1667 81.1533 93.3934 81.9533 93.8467 82.5C94.3001 83.0333 94.9001 83.3 95.6467 83.3Z" fill="white"/>
<mask id="mask1_75_1028" style="mask-type:alpha" maskUnits="userSpaceOnUse" x="10" y="-5" width="82" height="82">
<rect x="10" y="-5" width="82" height="82" fill="#D9D9D9"/>
</mask>
<g mask="url(#mask1_75_1028)">
<path d="M20.2502 66.75C19.2821 66.75 18.4706 66.4226 17.8158 65.7677C17.1609 65.1128 16.8335 64.3014 16.8335 63.3333C16.8335 62.3653 17.1609 61.5538 17.8158 60.899C18.4706 60.2441 19.2821 59.9167 20.2502 59.9167H81.7502C82.7182 59.9167 83.5297 60.2441 84.1845 60.899C84.8394 61.5538 85.1668 62.3653 85.1668 63.3333C85.1668 64.3014 84.8394 65.1128 84.1845 65.7677C83.5297 66.4226 82.7182 66.75 81.7502 66.75H20.2502ZM25.3752 56.5C23.9516 56.5 22.7415 56.0017 21.745 55.0052C20.7484 54.0087 20.2502 52.7986 20.2502 51.375V37.7083C20.2502 36.2847 20.7484 35.0747 21.745 34.0781C22.7415 33.0816 23.9516 32.5833 25.3752 32.5833C26.7988 32.5833 28.0088 33.0816 29.0054 34.0781C30.0019 35.0747 30.5002 36.2847 30.5002 37.7083V51.375C30.5002 52.7986 30.0019 54.0087 29.0054 55.0052C28.0088 56.0017 26.7988 56.5 25.3752 56.5ZM42.4585 56.5C41.0349 56.5 39.8248 56.0017 38.8283 55.0052C37.8318 54.0087 37.3335 52.7986 37.3335 51.375V20.625C37.3335 19.2014 37.8318 17.9913 38.8283 16.9948C39.8248 15.9983 41.0349 15.5 42.4585 15.5C43.8821 15.5 45.0922 15.9983 46.0887 16.9948C47.0852 17.9913 47.5835 19.2014 47.5835 20.625V51.375C47.5835 52.7986 47.0852 54.0087 46.0887 55.0052C45.0922 56.0017 43.8821 56.5 42.4585 56.5ZM59.5418 56.5C58.1182 56.5 56.9081 56.0017 55.9116 55.0052C54.9151 54.0087 54.4168 52.7986 54.4168 51.375V30.875C54.4168 29.4514 54.9151 28.2413 55.9116 27.2448C56.9081 26.2483 58.1182 25.75 59.5418 25.75C60.9654 25.75 62.1755 26.2483 63.172 27.2448C64.1686 28.2413 64.6668 29.4514 64.6668 30.875V51.375C64.6668 52.7986 64.1686 54.0087 63.172 55.0052C62.1755 56.0017 60.9654 56.5 59.5418 56.5ZM76.6252 56.5C75.2016 56.5 73.9915 56.0017 72.995 55.0052C71.9984 54.0087 71.5002 52.7986 71.5002 51.375V10.375C71.5002 8.95139 71.9984 7.74132 72.995 6.74479C73.9915 5.74826 75.2016 5.25 76.6252 5.25C78.0488 5.25 79.2588 5.74826 80.2554 6.74479C81.2519 7.74132 81.7502 8.95139 81.7502 10.375V51.375C81.7502 52.7986 81.2519 54.0087 80.2554 55.0052C79.2588 56.0017 78.0488 56.5 76.6252 56.5Z" fill="white"/>
</g>
</g>
</svg>
