<svg width="90" height="90" viewBox="0 0 90 90" fill="none" xmlns="http://www.w3.org/2000/svg">
<mask id="mask0_75_1033" style="mask-type:alpha" maskUnits="userSpaceOnUse" x="0" y="0" width="90" height="90">
<rect width="90" height="90" fill="#D9D9D9"/>
</mask>
<g mask="url(#mask0_75_1033)">
<path d="M19.3258 85C18.8858 85 18.5458 84.8867 18.3058 84.66C18.0791 84.42 17.9658 84.08 17.9658 83.64V72.26C17.9658 71.82 18.0791 71.4867 18.3058 71.26C18.5458 71.02 18.8858 70.9 19.3258 70.9H24.1258C25.1124 70.9 25.9524 71.0467 26.6458 71.34C27.3391 71.6333 27.8658 72.0533 28.2258 72.6C28.5991 73.1467 28.7858 73.8 28.7858 74.56C28.7858 75.4133 28.5391 76.1333 28.0458 76.72C27.5524 77.3067 26.8791 77.7 26.0258 77.9V77.6C27.0124 77.7467 27.7791 78.12 28.3258 78.72C28.8724 79.32 29.1458 80.1 29.1458 81.06C29.1458 82.3133 28.7191 83.2867 27.8658 83.98C27.0258 84.66 25.8524 85 24.3458 85H19.3258ZM20.4258 83.06H24.0258C24.9324 83.06 25.5991 82.8867 26.0258 82.54C26.4524 82.18 26.6658 81.6467 26.6658 80.94C26.6658 80.22 26.4524 79.6867 26.0258 79.34C25.5991 78.9933 24.9324 78.82 24.0258 78.82H20.4258V83.06ZM20.4258 76.88H23.6858C24.5658 76.88 25.2191 76.7133 25.6458 76.38C26.0858 76.0333 26.3058 75.5267 26.3058 74.86C26.3058 74.1933 26.0858 73.6933 25.6458 73.36C25.2191 73.0133 24.5658 72.84 23.6858 72.84H20.4258V76.88ZM35.9553 85.2C34.942 85.2 34.062 84.9933 33.3153 84.58C32.5686 84.1667 31.9886 83.58 31.5753 82.82C31.162 82.0467 30.9553 81.14 30.9553 80.1C30.9553 79.3133 31.0686 78.6133 31.2953 78C31.5353 77.3733 31.8753 76.84 32.3153 76.4C32.7553 75.9467 33.282 75.6067 33.8953 75.38C34.5086 75.14 35.1953 75.02 35.9553 75.02C36.9686 75.02 37.8486 75.2267 38.5953 75.64C39.342 76.0533 39.922 76.64 40.3353 77.4C40.7486 78.16 40.9553 79.06 40.9553 80.1C40.9553 80.8867 40.8353 81.5933 40.5953 82.22C40.3686 82.8467 40.0353 83.3867 39.5953 83.84C39.1553 84.28 38.6286 84.62 38.0153 84.86C37.402 85.0867 36.7153 85.2 35.9553 85.2ZM35.9553 83.3C36.4486 83.3 36.882 83.18 37.2553 82.94C37.6286 82.7 37.9153 82.3467 38.1153 81.88C38.3286 81.4 38.4353 80.8067 38.4353 80.1C38.4353 79.0333 38.2086 78.24 37.7553 77.72C37.302 77.1867 36.702 76.92 35.9553 76.92C35.462 76.92 35.0286 77.04 34.6553 77.28C34.282 77.5067 33.9886 77.86 33.7753 78.34C33.5753 78.8067 33.4753 79.3933 33.4753 80.1C33.4753 81.1533 33.702 81.9533 34.1553 82.5C34.6086 83.0333 35.2086 83.3 35.9553 83.3ZM47.4788 85.2C46.4654 85.2 45.5854 84.9933 44.8388 84.58C44.0921 84.1667 43.5121 83.58 43.0988 82.82C42.6854 82.0467 42.4788 81.14 42.4788 80.1C42.4788 79.3133 42.5921 78.6133 42.8188 78C43.0588 77.3733 43.3988 76.84 43.8388 76.4C44.2788 75.9467 44.8054 75.6067 45.4188 75.38C46.0321 75.14 46.7188 75.02 47.4788 75.02C48.4921 75.02 49.3721 75.2267 50.1188 75.64C50.8654 76.0533 51.4454 76.64 51.8588 77.4C52.2721 78.16 52.4788 79.06 52.4788 80.1C52.4788 80.8867 52.3588 81.5933 52.1188 82.22C51.8921 82.8467 51.5588 83.3867 51.1188 83.84C50.6788 84.28 50.1521 84.62 49.5388 84.86C48.9254 85.0867 48.2388 85.2 47.4788 85.2ZM47.4788 83.3C47.9721 83.3 48.4054 83.18 48.7788 82.94C49.1521 82.7 49.4388 82.3467 49.6388 81.88C49.8521 81.4 49.9588 80.8067 49.9588 80.1C49.9588 79.0333 49.7321 78.24 49.2788 77.72C48.8254 77.1867 48.2254 76.92 47.4788 76.92C46.9854 76.92 46.5521 77.04 46.1788 77.28C45.8054 77.5067 45.5121 77.86 45.2988 78.34C45.0988 78.8067 44.9988 79.3933 44.9988 80.1C44.9988 81.1533 45.2254 81.9533 45.6788 82.5C46.1321 83.0333 46.7321 83.3 47.4788 83.3ZM55.7822 85.16C55.3822 85.16 55.0755 85.0533 54.8622 84.84C54.6489 84.6133 54.5422 84.2933 54.5422 83.88V72C54.5422 71.5867 54.6489 71.2733 54.8622 71.06C55.0755 70.8467 55.3822 70.74 55.7822 70.74C56.1822 70.74 56.4889 70.8467 56.7022 71.06C56.9289 71.2733 57.0422 71.5867 57.0422 72V79.38H57.0822L60.3822 75.9C60.6489 75.6333 60.8822 75.4267 61.0822 75.28C61.2822 75.1333 61.5555 75.06 61.9022 75.06C62.2489 75.06 62.5089 75.1533 62.6822 75.34C62.8689 75.5133 62.9622 75.7267 62.9622 75.98C62.9622 76.2333 62.8422 76.4867 62.6022 76.74L59.1222 80.42V79.38L62.9422 83.5C63.1822 83.7533 63.2889 84.0133 63.2622 84.28C63.2489 84.5333 63.1422 84.7467 62.9422 84.92C62.7422 85.08 62.4889 85.16 62.1822 85.16C61.8089 85.16 61.5089 85.0867 61.2822 84.94C61.0689 84.7933 60.8289 84.5733 60.5622 84.28L57.0822 80.64H57.0422V83.88C57.0422 84.7333 56.6222 85.16 55.7822 85.16ZM68.6886 85.2C68.1153 85.2 67.5086 85.14 66.8686 85.02C66.2286 84.9 65.6553 84.6933 65.1486 84.4C64.9353 84.2667 64.7819 84.1133 64.6886 83.94C64.6086 83.7533 64.5753 83.5733 64.5886 83.4C64.6153 83.2133 64.6819 83.0533 64.7886 82.92C64.9086 82.7867 65.0553 82.7 65.2286 82.66C65.4153 82.62 65.6153 82.6533 65.8286 82.76C66.3619 83.0133 66.8619 83.1933 67.3286 83.3C67.7953 83.3933 68.2553 83.44 68.7086 83.44C69.3486 83.44 69.8219 83.3333 70.1286 83.12C70.4486 82.8933 70.6086 82.6 70.6086 82.24C70.6086 81.9333 70.5019 81.7 70.2886 81.54C70.0886 81.3667 69.7819 81.24 69.3686 81.16L67.3686 80.78C66.5419 80.62 65.9086 80.32 65.4686 79.88C65.0419 79.4267 64.8286 78.8467 64.8286 78.14C64.8286 77.5 65.0019 76.9467 65.3486 76.48C65.7086 76.0133 66.2019 75.6533 66.8286 75.4C67.4553 75.1467 68.1753 75.02 68.9886 75.02C69.5753 75.02 70.1219 75.0867 70.6286 75.22C71.1486 75.34 71.6486 75.5333 72.1286 75.8C72.3286 75.9067 72.4619 76.0467 72.5286 76.22C72.6086 76.3933 72.6286 76.5733 72.5886 76.76C72.5486 76.9333 72.4686 77.0933 72.3486 77.24C72.2286 77.3733 72.0753 77.46 71.8886 77.5C71.7153 77.5267 71.5153 77.4867 71.2886 77.38C70.8753 77.1667 70.4753 77.0133 70.0886 76.92C69.7153 76.8267 69.3553 76.78 69.0086 76.78C68.3553 76.78 67.8686 76.8933 67.5486 77.12C67.2419 77.3467 67.0886 77.6467 67.0886 78.02C67.0886 78.3 67.1819 78.5333 67.3686 78.72C67.5553 78.9067 67.8419 79.0333 68.2286 79.1L70.2286 79.48C71.0953 79.64 71.7486 79.9333 72.1886 80.36C72.6419 80.7867 72.8686 81.36 72.8686 82.08C72.8686 83.0533 72.4886 83.82 71.7286 84.38C70.9686 84.9267 69.9553 85.2 68.6886 85.2Z" fill="white"/>
<path fill-rule="evenodd" clip-rule="evenodd" d="M75.7266 29.1999C74.3907 28.0938 72.6702 27.5636 70.9434 27.7258C69.2166 27.8881 67.6249 28.7295 66.5184 30.065L65.1281 31.746L76.8826 41.4812L78.2709 39.8026C78.8189 39.1411 79.2313 38.3781 79.4844 37.5572C79.7375 36.7363 79.8264 35.8736 79.746 35.0183C79.6657 34.1631 79.4177 33.332 79.0161 32.5726C78.6145 31.8133 78.0673 31.1404 77.4057 30.5925L75.7266 29.1999ZM74.0994 44.8391L62.3449 35.1039L44.4671 56.6911C44.0759 57.1635 43.8254 57.7364 43.7443 58.3444L42.4191 68.2245C42.3696 68.5913 42.4143 68.9647 42.549 69.3095C42.6837 69.6543 42.904 69.959 43.1891 70.1952C43.4742 70.4313 43.8146 70.5909 44.1785 70.659C44.5423 70.7272 44.9175 70.7015 45.2687 70.5846L54.7317 67.4444C55.3132 67.2512 55.8287 66.8985 56.2194 66.4265L74.0994 44.8391Z" fill="#B5CE3C"/>
<path fill-rule="evenodd" clip-rule="evenodd" d="M14.613 64.2196H22.1405C22.5683 64.2196 22.9786 64.0497 23.2811 63.7472C23.5836 63.4447 23.7535 63.0344 23.7535 62.6066V12.0651C23.7535 11.6373 23.5836 11.227 23.2811 10.9245C22.9786 10.622 22.5683 10.4521 22.1405 10.4521H14.613C14.1852 10.4521 13.7749 10.622 13.4724 10.9245C13.1699 11.227 13 11.6373 13 12.0651V62.6066C13 63.0344 13.1699 63.4447 13.4724 63.7472C13.7749 64.0497 14.1852 64.2196 14.613 64.2196ZM43.1098 20.6679V27.6577H25.9042V20.6679C25.9042 20.2401 26.0741 19.8298 26.3766 19.5273C26.6791 19.2248 27.0894 19.0549 27.5172 19.0549H41.4968C41.9246 19.0549 42.3349 19.2248 42.6374 19.5273C42.9399 19.8298 43.1098 20.2401 43.1098 20.6679ZM25.9042 62.6066V55.6168H42.2248C42.1033 55.9344 42.0185 56.2665 41.9731 56.6068L40.952 64.2196H27.5172C27.0894 64.2196 26.6791 64.0497 26.3766 63.7472C26.0741 63.4447 25.9042 63.0344 25.9042 62.6066ZM64.3252 60.7507L64.4824 62.6778C64.5003 62.8946 64.5618 63.1056 64.6634 63.298C64.7649 63.4904 64.9043 63.6603 65.0732 63.7974C65.2421 63.9345 65.437 64.0361 65.6462 64.0959C65.8553 64.1558 66.0744 64.1727 66.2903 64.1457L75.99 62.9359C76.403 62.8843 76.78 62.675 77.0423 62.3519C77.3045 62.0287 77.4318 61.6167 77.3973 61.2019L76.1846 46.4323L64.3252 60.7507ZM74.5377 26.3746L73.354 11.9589C73.3362 11.7451 73.2759 11.5369 73.1766 11.3466C73.0774 11.1563 72.9411 10.9878 72.7759 10.8508C72.6106 10.7139 72.4197 10.6113 72.2143 10.549C72.0089 10.4868 71.7932 10.4662 71.5797 10.4884L61.8841 11.4979C61.4657 11.5431 61.0816 11.75 60.8136 12.0744C60.5457 12.3989 60.4151 12.8152 60.4498 13.2346L61.9245 31.3151L65.7631 26.6496C67.7971 24.5249 71.5042 25.1056 74.5377 26.3746ZM58.1647 35.8848V5.61303C58.1647 5.18522 57.9948 4.77494 57.6923 4.47244C57.3898 4.16994 56.9795 4 56.5517 4H46.8735C46.4457 4 46.0354 4.16994 45.7329 4.47244C45.4304 4.77494 45.2605 5.18522 45.2605 5.61303V51.569L58.1647 35.8848ZM43.1098 31.9591H25.9042V51.3154H43.1098V31.9591Z" fill="white"/>
</g>
</svg>
