<svg width="90" height="90" viewBox="0 0 90 90" fill="none" xmlns="http://www.w3.org/2000/svg">
<mask id="mask0_75_1059" style="mask-type:alpha" maskUnits="userSpaceOnUse" x="0" y="0" width="90" height="90">
<rect width="90" height="90" fill="#D9D9D9"/>
</mask>
<g mask="url(#mask0_75_1059)">
<path d="M25.9645 85.2C24.9911 85.2 24.1311 85.0733 23.3845 84.82C22.6511 84.5667 22.0311 84.1933 21.5245 83.7C21.0178 83.1933 20.6378 82.5667 20.3845 81.82C20.1311 81.0733 20.0045 80.2067 20.0045 79.22V72.04C20.0045 71.6 20.1111 71.2733 20.3245 71.06C20.5511 70.8467 20.8711 70.74 21.2845 70.74C21.6978 70.74 22.0111 70.8467 22.2245 71.06C22.4511 71.2733 22.5645 71.6 22.5645 72.04V79.2C22.5645 80.4667 22.8511 81.42 23.4245 82.06C24.0111 82.6867 24.8578 83 25.9645 83C27.0711 83 27.9111 82.6867 28.4845 82.06C29.0578 81.42 29.3445 80.4667 29.3445 79.2V72.04C29.3445 71.6 29.4511 71.2733 29.6645 71.06C29.8911 70.8467 30.2111 70.74 30.6245 70.74C31.0245 70.74 31.3311 70.8467 31.5445 71.06C31.7711 71.2733 31.8845 71.6 31.8845 72.04V79.22C31.8845 80.5267 31.6578 81.6267 31.2045 82.52C30.7645 83.4133 30.1045 84.0867 29.2245 84.54C28.3445 84.98 27.2578 85.2 25.9645 85.2ZM38.2101 85.2C37.6367 85.2 37.0301 85.14 36.3901 85.02C35.7501 84.9 35.1767 84.6933 34.6701 84.4C34.4567 84.2667 34.3034 84.1133 34.2101 83.94C34.1301 83.7533 34.0967 83.5733 34.1101 83.4C34.1367 83.2133 34.2034 83.0533 34.3101 82.92C34.4301 82.7867 34.5767 82.7 34.7501 82.66C34.9367 82.62 35.1367 82.6533 35.3501 82.76C35.8834 83.0133 36.3834 83.1933 36.8501 83.3C37.3167 83.3933 37.7767 83.44 38.2301 83.44C38.8701 83.44 39.3434 83.3333 39.6501 83.12C39.9701 82.8933 40.1301 82.6 40.1301 82.24C40.1301 81.9333 40.0234 81.7 39.8101 81.54C39.6101 81.3667 39.3034 81.24 38.8901 81.16L36.8901 80.78C36.0634 80.62 35.4301 80.32 34.9901 79.88C34.5634 79.4267 34.3501 78.8467 34.3501 78.14C34.3501 77.5 34.5234 76.9467 34.8701 76.48C35.2301 76.0133 35.7234 75.6533 36.3501 75.4C36.9767 75.1467 37.6967 75.02 38.5101 75.02C39.0967 75.02 39.6434 75.0867 40.1501 75.22C40.6701 75.34 41.1701 75.5333 41.6501 75.8C41.8501 75.9067 41.9834 76.0467 42.0501 76.22C42.1301 76.3933 42.1501 76.5733 42.1101 76.76C42.0701 76.9333 41.9901 77.0933 41.8701 77.24C41.7501 77.3733 41.5967 77.46 41.4101 77.5C41.2367 77.5267 41.0367 77.4867 40.8101 77.38C40.3967 77.1667 39.9967 77.0133 39.6101 76.92C39.2367 76.8267 38.8767 76.78 38.5301 76.78C37.8767 76.78 37.3901 76.8933 37.0701 77.12C36.7634 77.3467 36.6101 77.6467 36.6101 78.02C36.6101 78.3 36.7034 78.5333 36.8901 78.72C37.0767 78.9067 37.3634 79.0333 37.7501 79.1L39.7501 79.48C40.6167 79.64 41.2701 79.9333 41.7101 80.36C42.1634 80.7867 42.3901 81.36 42.3901 82.08C42.3901 83.0533 42.0101 83.82 41.2501 84.38C40.4901 84.9267 39.4767 85.2 38.2101 85.2ZM49.2157 85.2C48.109 85.2 47.1557 84.9933 46.3557 84.58C45.5557 84.1667 44.9357 83.58 44.4957 82.82C44.069 82.06 43.8557 81.16 43.8557 80.12C43.8557 79.1067 44.0624 78.22 44.4757 77.46C44.9024 76.7 45.4824 76.1067 46.2157 75.68C46.9624 75.24 47.809 75.02 48.7557 75.02C49.449 75.02 50.069 75.1333 50.6157 75.36C51.1757 75.5867 51.649 75.9133 52.0357 76.34C52.4357 76.7667 52.7357 77.2867 52.9357 77.9C53.149 78.5 53.2557 79.18 53.2557 79.94C53.2557 80.18 53.169 80.3667 52.9957 80.5C52.8357 80.62 52.6024 80.68 52.2957 80.68H45.8757V79.24H51.4957L51.1757 79.54C51.1757 78.9267 51.0824 78.4133 50.8957 78C50.7224 77.5867 50.4624 77.2733 50.1157 77.06C49.7824 76.8333 49.3624 76.72 48.8557 76.72C48.2957 76.72 47.8157 76.8533 47.4157 77.12C47.029 77.3733 46.729 77.74 46.5157 78.22C46.3157 78.6867 46.2157 79.2467 46.2157 79.9V80.04C46.2157 81.1333 46.469 81.9533 46.9757 82.5C47.4957 83.0333 48.2557 83.3 49.2557 83.3C49.6024 83.3 49.989 83.26 50.4157 83.18C50.8557 83.0867 51.269 82.9333 51.6557 82.72C51.9357 82.56 52.1824 82.4933 52.3957 82.52C52.609 82.5333 52.7757 82.6067 52.8957 82.74C53.029 82.8733 53.109 83.04 53.1357 83.24C53.1624 83.4267 53.1224 83.62 53.0157 83.82C52.9224 84.02 52.7557 84.1933 52.5157 84.34C52.049 84.6333 51.509 84.8533 50.8957 85C50.2957 85.1333 49.7357 85.2 49.2157 85.2ZM56.5155 85.16C56.1022 85.16 55.7822 85.0533 55.5555 84.84C55.3422 84.6133 55.2355 84.2933 55.2355 83.88V76.32C55.2355 75.9067 55.3422 75.5933 55.5555 75.38C55.7689 75.1667 56.0689 75.06 56.4555 75.06C56.8422 75.06 57.1422 75.1667 57.3555 75.38C57.5689 75.5933 57.6755 75.9067 57.6755 76.32V77.58H57.4755C57.6622 76.78 58.0289 76.1733 58.5755 75.76C59.1222 75.3467 59.8489 75.1 60.7555 75.02C61.0355 74.9933 61.2555 75.0667 61.4155 75.24C61.5889 75.4 61.6889 75.6533 61.7155 76C61.7422 76.3333 61.6622 76.6067 61.4755 76.82C61.3022 77.02 61.0355 77.14 60.6755 77.18L60.2355 77.22C59.4222 77.3 58.8089 77.5533 58.3955 77.98C57.9822 78.3933 57.7755 78.98 57.7755 79.74V83.88C57.7755 84.2933 57.6689 84.6133 57.4555 84.84C57.2422 85.0533 56.9289 85.16 56.5155 85.16ZM66.5499 85.2C65.9766 85.2 65.3699 85.14 64.7299 85.02C64.0899 84.9 63.5166 84.6933 63.0099 84.4C62.7966 84.2667 62.6433 84.1133 62.5499 83.94C62.4699 83.7533 62.4366 83.5733 62.4499 83.4C62.4766 83.2133 62.5433 83.0533 62.6499 82.92C62.7699 82.7867 62.9166 82.7 63.0899 82.66C63.2766 82.62 63.4766 82.6533 63.6899 82.76C64.2233 83.0133 64.7233 83.1933 65.1899 83.3C65.6566 83.3933 66.1166 83.44 66.5699 83.44C67.2099 83.44 67.6833 83.3333 67.9899 83.12C68.3099 82.8933 68.4699 82.6 68.4699 82.24C68.4699 81.9333 68.3633 81.7 68.1499 81.54C67.9499 81.3667 67.6433 81.24 67.2299 81.16L65.2299 80.78C64.4033 80.62 63.7699 80.32 63.3299 79.88C62.9033 79.4267 62.6899 78.8467 62.6899 78.14C62.6899 77.5 62.8633 76.9467 63.2099 76.48C63.5699 76.0133 64.0633 75.6533 64.6899 75.4C65.3166 75.1467 66.0366 75.02 66.8499 75.02C67.4366 75.02 67.9833 75.0867 68.4899 75.22C69.0099 75.34 69.5099 75.5333 69.9899 75.8C70.1899 75.9067 70.3233 76.0467 70.3899 76.22C70.4699 76.3933 70.4899 76.5733 70.4499 76.76C70.4099 76.9333 70.3299 77.0933 70.2099 77.24C70.0899 77.3733 69.9366 77.46 69.7499 77.5C69.5766 77.5267 69.3766 77.4867 69.1499 77.38C68.7366 77.1667 68.3366 77.0133 67.9499 76.92C67.5766 76.8267 67.2166 76.78 66.8699 76.78C66.2166 76.78 65.7299 76.8933 65.4099 77.12C65.1033 77.3467 64.9499 77.6467 64.9499 78.02C64.9499 78.3 65.0433 78.5333 65.2299 78.72C65.4166 78.9067 65.7033 79.0333 66.0899 79.1L68.0899 79.48C68.9566 79.64 69.6099 79.9333 70.0499 80.36C70.5033 80.7867 70.7299 81.36 70.7299 82.08C70.7299 83.0533 70.3499 83.82 69.5899 84.38C68.8299 84.9267 67.8166 85.2 66.5499 85.2Z" fill="white"/>
<mask id="mask1_75_1059" style="mask-type:alpha" maskUnits="userSpaceOnUse" x="3" y="-9" width="87" height="87">
<rect x="3" y="-9" width="87" height="87" fill="#D9D9D9"/>
</mask>
<g mask="url(#mask1_75_1059)">
<path fill-rule="evenodd" clip-rule="evenodd" d="M82.5398 27.3301C81.144 26.1744 79.3463 25.6204 77.5421 25.7899C75.7378 25.9594 74.0748 26.8385 72.9187 28.234L71.466 29.9904L83.7477 40.1622L85.1983 38.4083C85.7709 37.7171 86.2017 36.9199 86.4661 36.0622C86.7306 35.2045 86.8235 34.3031 86.7395 33.4095C86.6556 32.5159 86.3964 31.6475 85.9768 30.8541C85.5573 30.0607 84.9855 29.3576 84.2942 28.7852L82.5398 27.3301ZM80.8396 43.6707L68.558 33.4989L49.8783 56.0542C49.4696 56.5478 49.2079 57.1464 49.1231 57.7817L47.7385 68.1049C47.6868 68.4882 47.7335 68.8783 47.8743 69.2386C48.015 69.5988 48.2452 69.9173 48.543 70.1639C48.8409 70.4106 49.1966 70.5774 49.5768 70.6486C49.9569 70.7198 50.349 70.693 50.7159 70.5708L60.6034 67.2898C61.2109 67.0879 61.7495 66.7194 62.1577 66.2263L80.8396 43.6707Z" fill="#B5CE3C"/>
<path fill-rule="evenodd" clip-rule="evenodd" d="M8.21094 47.6859C7.15365 49.4078 6.625 51.2958 6.625 53.35V56.25C6.625 58.2438 7.3349 59.9505 8.75469 61.3703C10.1745 62.7901 11.8812 63.5 13.875 63.5H46.6076L47.5849 56.2136C47.694 55.3958 48.0309 54.6251 48.5572 53.9897L57.5533 43.127C54.2185 41.5595 50.8361 40.3604 47.4062 39.5297C43.5396 38.5932 39.6125 38.125 35.625 38.125C31.6375 38.125 27.7104 38.5932 23.8438 39.5297C19.9771 40.4661 16.1708 41.8708 12.425 43.7438C10.6729 44.65 9.26823 45.9641 8.21094 47.6859ZM71.746 58.1745L82.2844 45.4509C83.2303 46.1848 84.0199 46.96 84.6531 47.7766C85.801 49.2568 86.375 50.8729 86.375 52.625V56.25C86.375 58.2438 85.6651 59.9505 84.2453 61.3703C82.8255 62.7901 81.1188 63.5 79.125 63.5H69.8813C70.5458 62.4125 71.0443 61.2495 71.3766 60.0109C71.5398 59.4024 71.663 58.7903 71.746 58.1745ZM25.3844 30.2406C28.224 33.0802 31.6375 34.5 35.625 34.5C39.6125 34.5 43.026 33.0802 45.8656 30.2406C48.7052 27.401 50.125 23.9875 50.125 20C50.125 16.0125 48.7052 12.599 45.8656 9.75938C43.026 6.91979 39.6125 5.5 35.625 5.5C31.6375 5.5 28.224 6.91979 25.3844 9.75938C22.5448 12.599 21.125 16.0125 21.125 20C21.125 23.9875 22.5448 27.401 25.3844 30.2406ZM67.6156 30.2406C70.4552 27.401 71.875 23.9875 71.875 20C71.875 16.0125 70.4552 12.599 67.6156 9.75938C64.776 6.91979 61.3625 5.5 57.375 5.5C56.5292 5.5 55.6833 5.54531 54.8375 5.63594C53.9917 5.72656 53.1458 5.92292 52.3 6.225C53.9313 8.15833 55.1849 10.3031 56.0609 12.6594C56.937 15.0156 57.375 17.4625 57.375 20C57.375 22.5375 56.937 24.9844 56.0609 27.3406C55.1849 29.6969 53.9313 31.8417 52.3 33.775C52.9646 33.9563 53.8104 34.1224 54.8375 34.2734C55.8646 34.4245 56.7104 34.5 57.375 34.5C61.3625 34.5 64.776 33.0802 67.6156 30.2406Z" fill="white"/>
</g>
</g>
</svg>
