<svg width="90" height="90" viewBox="0 0 90 90" fill="none" xmlns="http://www.w3.org/2000/svg">
<mask id="mask0_75_1067" style="mask-type:alpha" maskUnits="userSpaceOnUse" x="0" y="0" width="90" height="90">
<rect width="90" height="90" fill="#D9D9D9"/>
</mask>
<g mask="url(#mask0_75_1067)">
<path d="M6.26344 85.16C5.8901 85.16 5.60344 85.0533 5.40344 84.84C5.20344 84.6267 5.10344 84.3333 5.10344 83.96V71.94C5.10344 71.5533 5.2101 71.26 5.42344 71.06C5.63677 70.8467 5.9301 70.74 6.30344 70.74C6.63677 70.74 6.89677 70.8067 7.08344 70.94C7.28344 71.06 7.46344 71.2733 7.62344 71.58L12.5634 80.72H11.9234L16.8634 71.58C17.0234 71.2733 17.1968 71.06 17.3834 70.94C17.5701 70.8067 17.8301 70.74 18.1634 70.74C18.5368 70.74 18.8234 70.8467 19.0234 71.06C19.2234 71.26 19.3234 71.5533 19.3234 71.94V83.96C19.3234 84.3333 19.2234 84.6267 19.0234 84.84C18.8368 85.0533 18.5501 85.16 18.1634 85.16C17.7901 85.16 17.5034 85.0533 17.3034 84.84C17.1034 84.6267 17.0034 84.3333 17.0034 83.96V74.7H17.4434L13.2434 82.36C13.1101 82.5867 12.9701 82.7533 12.8234 82.86C12.6768 82.9667 12.4768 83.02 12.2234 83.02C11.9701 83.02 11.7634 82.9667 11.6034 82.86C11.4434 82.74 11.3034 82.5733 11.1834 82.36L6.94344 74.68H7.42344V83.96C7.42344 84.3333 7.32344 84.6267 7.12344 84.84C6.93677 85.0533 6.6501 85.16 6.26344 85.16ZM24.6667 88.76C24.3734 88.76 24.1334 88.68 23.9467 88.52C23.7601 88.3733 23.6467 88.1733 23.6067 87.92C23.5801 87.6667 23.6267 87.4 23.7467 87.12L25.1067 84.1V85.14L21.4667 76.72C21.3467 76.4267 21.3067 76.1533 21.3467 75.9C21.3867 75.6467 21.5067 75.4467 21.7067 75.3C21.9201 75.14 22.2067 75.06 22.5667 75.06C22.8734 75.06 23.1201 75.1333 23.3067 75.28C23.4934 75.4133 23.6601 75.6733 23.8067 76.06L26.5067 82.8H25.9067L28.6667 76.04C28.8134 75.6667 28.9867 75.4133 29.1867 75.28C29.3867 75.1333 29.6534 75.06 29.9867 75.06C30.2801 75.06 30.5134 75.14 30.6867 75.3C30.8601 75.4467 30.9667 75.6467 31.0067 75.9C31.0467 76.14 31.0001 76.4067 30.8667 76.7L26.0067 87.8C25.8334 88.1733 25.6467 88.4267 25.4467 88.56C25.2467 88.6933 24.9867 88.76 24.6667 88.76ZM43.2438 85.2C42.6571 85.2 42.0704 85.1533 41.4838 85.06C40.8971 84.98 40.3438 84.8533 39.8238 84.68C39.3038 84.4933 38.8371 84.2667 38.4238 84C38.1838 83.84 38.0171 83.6467 37.9238 83.42C37.8304 83.1933 37.7971 82.9733 37.8238 82.76C37.8638 82.5333 37.9504 82.34 38.0838 82.18C38.2304 82.0067 38.4104 81.9 38.6238 81.86C38.8371 81.82 39.0704 81.88 39.3238 82.04C39.9104 82.3867 40.5304 82.64 41.1838 82.8C41.8371 82.96 42.5238 83.04 43.2438 83.04C44.2971 83.04 45.0638 82.8667 45.5438 82.52C46.0238 82.16 46.2638 81.7 46.2638 81.14C46.2638 80.6733 46.0904 80.3067 45.7438 80.04C45.4104 79.7733 44.8304 79.5533 44.0038 79.38L41.8038 78.92C40.5371 78.6533 39.5904 78.2067 38.9638 77.58C38.3504 76.94 38.0438 76.1 38.0438 75.06C38.0438 74.4067 38.1771 73.8133 38.4438 73.28C38.7104 72.7467 39.0838 72.2867 39.5638 71.9C40.0571 71.5133 40.6371 71.22 41.3038 71.02C41.9838 70.8067 42.7304 70.7 43.5438 70.7C44.3438 70.7 45.1038 70.8 45.8238 71C46.5438 71.2 47.1904 71.4933 47.7638 71.88C47.9771 72.0267 48.1171 72.2067 48.1838 72.42C48.2638 72.6333 48.2838 72.8467 48.2438 73.06C48.2038 73.26 48.1104 73.4333 47.9638 73.58C47.8171 73.7267 47.6304 73.8133 47.4037 73.84C47.1904 73.8667 46.9438 73.8 46.6638 73.64C46.1704 73.36 45.6704 73.16 45.1638 73.04C44.6571 72.92 44.1104 72.86 43.5238 72.86C42.9104 72.86 42.3838 72.9467 41.9438 73.12C41.5038 73.2933 41.1638 73.54 40.9238 73.86C40.6971 74.1667 40.5838 74.5333 40.5838 74.96C40.5838 75.44 40.7438 75.8267 41.0638 76.12C41.3838 76.4 41.9304 76.62 42.7038 76.78L44.8838 77.24C46.2038 77.52 47.1838 77.96 47.8238 78.56C48.4771 79.16 48.8038 79.96 48.8038 80.96C48.8038 81.6 48.6704 82.18 48.4038 82.7C48.1504 83.22 47.7771 83.6667 47.2838 84.04C46.8038 84.4133 46.2238 84.7 45.5438 84.9C44.8638 85.1 44.0971 85.2 43.2438 85.2ZM52.0009 85.16C51.6009 85.16 51.2943 85.0533 51.0809 84.84C50.8676 84.6133 50.7609 84.2933 50.7609 83.88V72C50.7609 71.5867 50.8676 71.2733 51.0809 71.06C51.2943 70.8467 51.6009 70.74 52.0009 70.74C52.4009 70.74 52.7076 70.8467 52.9209 71.06C53.1476 71.2733 53.2609 71.5867 53.2609 72V77.18H52.9809C53.2743 76.4733 53.7276 75.94 54.3409 75.58C54.9676 75.2067 55.6743 75.02 56.4609 75.02C57.2476 75.02 57.8943 75.1667 58.4009 75.46C58.9076 75.7533 59.2876 76.2 59.5409 76.8C59.7943 77.3867 59.9209 78.1333 59.9209 79.04V83.88C59.9209 84.2933 59.8143 84.6133 59.6009 84.84C59.3876 85.0533 59.0809 85.16 58.6809 85.16C58.2809 85.16 57.9676 85.0533 57.7409 84.84C57.5276 84.6133 57.4209 84.2933 57.4209 83.88V79.16C57.4209 78.4 57.2743 77.8467 56.9809 77.5C56.7009 77.1533 56.2609 76.98 55.6609 76.98C54.9276 76.98 54.3409 77.2133 53.9009 77.68C53.4743 78.1333 53.2609 78.74 53.2609 79.5V83.88C53.2609 84.7333 52.8409 85.16 52.0009 85.16ZM67.2802 85.2C66.1735 85.2 65.2202 84.9933 64.4202 84.58C63.6202 84.1667 63.0002 83.58 62.5602 82.82C62.1335 82.06 61.9202 81.16 61.9202 80.12C61.9202 79.1067 62.1268 78.22 62.5402 77.46C62.9668 76.7 63.5468 76.1067 64.2802 75.68C65.0268 75.24 65.8735 75.02 66.8202 75.02C67.5135 75.02 68.1335 75.1333 68.6802 75.36C69.2402 75.5867 69.7135 75.9133 70.1002 76.34C70.5002 76.7667 70.8002 77.2867 71.0002 77.9C71.2135 78.5 71.3202 79.18 71.3202 79.94C71.3202 80.18 71.2335 80.3667 71.0602 80.5C70.9002 80.62 70.6668 80.68 70.3602 80.68H63.9402V79.24H69.5602L69.2402 79.54C69.2402 78.9267 69.1468 78.4133 68.9602 78C68.7868 77.5867 68.5268 77.2733 68.1802 77.06C67.8468 76.8333 67.4268 76.72 66.9202 76.72C66.3602 76.72 65.8802 76.8533 65.4802 77.12C65.0935 77.3733 64.7935 77.74 64.5802 78.22C64.3802 78.6867 64.2802 79.2467 64.2802 79.9V80.04C64.2802 81.1333 64.5335 81.9533 65.0402 82.5C65.5602 83.0333 66.3202 83.3 67.3202 83.3C67.6668 83.3 68.0535 83.26 68.4802 83.18C68.9202 83.0867 69.3335 82.9333 69.7202 82.72C70.0002 82.56 70.2468 82.4933 70.4602 82.52C70.6735 82.5333 70.8402 82.6067 70.9602 82.74C71.0935 82.8733 71.1735 83.04 71.2002 83.24C71.2268 83.4267 71.1868 83.62 71.0802 83.82C70.9868 84.02 70.8202 84.1933 70.5802 84.34C70.1135 84.6333 69.5735 84.8533 68.9602 85C68.3602 85.1333 67.8002 85.2 67.2802 85.2ZM76.64 85.2C75.5333 85.2 74.7 84.8867 74.14 84.26C73.58 83.62 73.3 82.6867 73.3 81.46V72C73.3 71.5867 73.4067 71.2733 73.62 71.06C73.8333 70.8467 74.14 70.74 74.54 70.74C74.94 70.74 75.2467 70.8467 75.46 71.06C75.6867 71.2733 75.8 71.5867 75.8 72V81.34C75.8 81.9533 75.9267 82.4067 76.18 82.7C76.4467 82.9933 76.82 83.14 77.3 83.14C77.4067 83.14 77.5067 83.14 77.6 83.14C77.6933 83.1267 77.7867 83.1133 77.88 83.1C78.0667 83.0733 78.1933 83.1267 78.26 83.26C78.3267 83.38 78.36 83.6333 78.36 84.02C78.36 84.3533 78.2933 84.6133 78.16 84.8C78.0267 84.9867 77.8067 85.1 77.5 85.14C77.3667 85.1533 77.2267 85.1667 77.08 85.18C76.9333 85.1933 76.7867 85.2 76.64 85.2ZM81.4114 85.16C81.0114 85.16 80.6981 85.0533 80.4714 84.84C80.2581 84.6133 80.1514 84.2933 80.1514 83.88V77.1H79.2314C78.9114 77.1 78.6647 77.02 78.4914 76.86C78.3181 76.6867 78.2314 76.4533 78.2314 76.16C78.2314 75.8533 78.3181 75.62 78.4914 75.46C78.6647 75.3 78.9114 75.22 79.2314 75.22H80.8714L80.1514 75.88V75.2C80.1514 73.8267 80.4981 72.8 81.1914 72.12C81.8847 71.4267 82.8847 71.02 84.1914 70.9L84.8714 70.84C85.1381 70.8133 85.3514 70.86 85.5114 70.98C85.6714 71.0867 85.7781 71.2333 85.8314 71.42C85.8847 71.5933 85.8914 71.7733 85.8514 71.96C85.8114 72.1467 85.7247 72.3133 85.5914 72.46C85.4714 72.5933 85.3114 72.6667 85.1114 72.68L84.8314 72.7C84.0714 72.7533 83.5181 72.9467 83.1714 73.28C82.8247 73.6133 82.6514 74.12 82.6514 74.8V75.54L82.3314 75.22H84.3514C84.6714 75.22 84.9181 75.3 85.0914 75.46C85.2647 75.62 85.3514 75.8533 85.3514 76.16C85.3514 76.4533 85.2647 76.6867 85.0914 76.86C84.9181 77.02 84.6714 77.1 84.3514 77.1H82.6514V83.88C82.6514 84.7333 82.2381 85.16 81.4114 85.16Z" fill="white"/>
</g>
<path d="M22.3203 64.6875H14.7734C14.3445 64.6875 13.9332 64.5171 13.6299 64.2138C13.3266 63.9106 13.1562 63.4992 13.1562 63.0703V12.3984C13.1562 11.9695 13.3266 11.5582 13.6299 11.2549C13.9332 10.9516 14.3445 10.7813 14.7734 10.7812H22.3203C22.7492 10.7813 23.1606 10.9516 23.4638 11.2549C23.7671 11.5582 23.9375 11.9695 23.9375 12.3984V63.0703C23.9375 63.4992 23.7671 63.9106 23.4638 64.2138C23.1606 64.5171 22.7492 64.6875 22.3203 64.6875ZM43.3438 28.0312V21.0234C43.3438 20.5945 43.1734 20.1832 42.8701 19.8799C42.5668 19.5766 42.1555 19.4062 41.7266 19.4062H27.7109C27.282 19.4062 26.8707 19.5766 26.5674 19.8799C26.2641 20.1832 26.0938 20.5945 26.0938 21.0234V28.0312H43.3438ZM26.0938 56.0625V63.0703C26.0938 63.4992 26.2641 63.9106 26.5674 64.2138C26.8707 64.5171 27.282 64.6875 27.7109 64.6875H41.7266C42.1555 64.6875 42.5668 64.5171 42.8701 64.2138C43.1734 63.9106 43.3438 63.4992 43.3438 63.0703V56.0625H26.0938ZM26.0938 32.3438H43.3438V51.75H26.0938V32.3438ZM56.8203 64.6875H47.1172C46.6883 64.6875 46.2769 64.5171 45.9737 64.2138C45.6704 63.9106 45.5 63.4992 45.5 63.0703V5.92969C45.5 5.50078 45.6704 5.08944 45.9737 4.78616C46.2769 4.48288 46.6883 4.3125 47.1172 4.3125H56.8203C57.2492 4.3125 57.6606 4.48288 57.9638 4.78616C58.2671 5.08944 58.4375 5.50078 58.4375 5.92969V63.0703C58.4375 63.4992 58.2671 63.9106 57.9638 64.2138C57.6606 64.5171 57.2492 64.6875 56.8203 64.6875ZM60.7285 13.5709L64.7715 63.1417C64.7894 63.3591 64.8512 63.5706 64.953 63.7635C65.0548 63.9564 65.1945 64.1267 65.3639 64.2642C65.5332 64.4017 65.7286 64.5035 65.9383 64.5635C66.148 64.6235 66.3677 64.6405 66.5841 64.6134L76.3088 63.4005C76.7228 63.3487 77.1008 63.1389 77.3638 62.8149C77.6267 62.4909 77.7543 62.0778 77.7198 61.662L73.666 12.292C73.6482 12.0775 73.5877 11.8688 73.4882 11.6781C73.3886 11.4873 73.252 11.3183 73.0864 11.181C72.9207 11.0437 72.7293 10.9408 72.5234 10.8784C72.3174 10.8161 72.1011 10.7954 71.8871 10.8176L62.1665 11.8297C61.747 11.875 61.3619 12.0825 61.0933 12.4078C60.8246 12.7331 60.6937 13.1505 60.7285 13.5709Z" fill="white"/>
</svg>
