<svg width="90" height="90" viewBox="0 0 90 90" fill="none" xmlns="http://www.w3.org/2000/svg">
<mask id="mask0_75_1040" style="mask-type:alpha" maskUnits="userSpaceOnUse" x="0" y="0" width="90" height="90">
<rect width="90" height="90" fill="#D9D9D9"/>
</mask>
<g mask="url(#mask0_75_1040)">
<path d="M4.90984 85.16C4.49651 85.16 4.17651 85.0467 3.94984 84.82C3.73651 84.58 3.62984 84.2533 3.62984 83.84V72.2C3.62984 71.7733 3.74318 71.4533 3.96984 71.24C4.19651 71.0133 4.51651 70.9 4.92984 70.9H9.74984C11.2965 70.9 12.4898 71.2733 13.3298 72.02C14.1698 72.7533 14.5898 73.7867 14.5898 75.12C14.5898 75.9867 14.3965 76.7333 14.0098 77.36C13.6365 77.9867 13.0898 78.4667 12.3698 78.8C11.6498 79.1333 10.7765 79.3 9.74984 79.3L9.92984 79H10.5898C11.1365 79 11.6098 79.1333 12.0098 79.4C12.4232 79.6667 12.7832 80.0867 13.0898 80.66L14.5898 83.44C14.7498 83.72 14.8232 83.9933 14.8098 84.26C14.7965 84.5267 14.6965 84.7467 14.5098 84.92C14.3232 85.08 14.0498 85.16 13.6898 85.16C13.3298 85.16 13.0365 85.0867 12.8098 84.94C12.5832 84.78 12.3832 84.54 12.2098 84.22L10.1898 80.5C9.94984 80.0467 9.66318 79.7467 9.32984 79.6C9.00984 79.44 8.59651 79.36 8.08984 79.36H6.18984V83.84C6.18984 84.2533 6.08318 84.58 5.86984 84.82C5.65651 85.0467 5.33651 85.16 4.90984 85.16ZM6.18984 77.46H9.30984C10.2298 77.46 10.9232 77.2733 11.3898 76.9C11.8698 76.5133 12.1098 75.94 12.1098 75.18C12.1098 74.4333 11.8698 73.8733 11.3898 73.5C10.9232 73.1133 10.2298 72.92 9.30984 72.92H6.18984V77.46ZM21.6669 85.2C20.5602 85.2 19.6069 84.9933 18.8069 84.58C18.0069 84.1667 17.3869 83.58 16.9469 82.82C16.5202 82.06 16.3069 81.16 16.3069 80.12C16.3069 79.1067 16.5135 78.22 16.9269 77.46C17.3535 76.7 17.9335 76.1067 18.6669 75.68C19.4135 75.24 20.2602 75.02 21.2069 75.02C21.9002 75.02 22.5202 75.1333 23.0669 75.36C23.6269 75.5867 24.1002 75.9133 24.4869 76.34C24.8869 76.7667 25.1869 77.2867 25.3869 77.9C25.6002 78.5 25.7069 79.18 25.7069 79.94C25.7069 80.18 25.6202 80.3667 25.4469 80.5C25.2869 80.62 25.0535 80.68 24.7469 80.68H18.3269V79.24H23.9469L23.6269 79.54C23.6269 78.9267 23.5335 78.4133 23.3469 78C23.1735 77.5867 22.9135 77.2733 22.5669 77.06C22.2335 76.8333 21.8135 76.72 21.3069 76.72C20.7469 76.72 20.2669 76.8533 19.8669 77.12C19.4802 77.3733 19.1802 77.74 18.9669 78.22C18.7669 78.6867 18.6669 79.2467 18.6669 79.9V80.04C18.6669 81.1333 18.9202 81.9533 19.4269 82.5C19.9469 83.0333 20.7069 83.3 21.7069 83.3C22.0535 83.3 22.4402 83.26 22.8669 83.18C23.3069 83.0867 23.7202 82.9333 24.1069 82.72C24.3869 82.56 24.6335 82.4933 24.8469 82.52C25.0602 82.5333 25.2269 82.6067 25.3469 82.74C25.4802 82.8733 25.5602 83.04 25.5869 83.24C25.6135 83.4267 25.5735 83.62 25.4669 83.82C25.3735 84.02 25.2069 84.1933 24.9669 84.34C24.5002 84.6333 23.9602 84.8533 23.3469 85C22.7469 85.1333 22.1869 85.2 21.6669 85.2ZM35.8267 88.76C35.4267 88.76 35.1201 88.6533 34.9067 88.44C34.6934 88.2267 34.5867 87.9133 34.5867 87.5V83H34.8067C34.5934 83.6533 34.1801 84.1867 33.5667 84.6C32.9667 85 32.2601 85.2 31.4467 85.2C30.5934 85.2 29.8401 84.9933 29.1867 84.58C28.5467 84.1667 28.0467 83.58 27.6867 82.82C27.3267 82.0467 27.1467 81.14 27.1467 80.1C27.1467 79.0467 27.3267 78.1467 27.6867 77.4C28.0467 76.64 28.5467 76.0533 29.1867 75.64C29.8401 75.2267 30.5934 75.02 31.4467 75.02C32.2734 75.02 32.9934 75.2267 33.6067 75.64C34.2201 76.0533 34.6267 76.6 34.8267 77.28L34.6067 77.88V76.32C34.6067 75.9067 34.7134 75.5933 34.9267 75.38C35.1401 75.1667 35.4467 75.06 35.8467 75.06C36.2467 75.06 36.5534 75.1667 36.7667 75.38C36.9801 75.5933 37.0867 75.9067 37.0867 76.32V87.5C37.0867 87.9133 36.9734 88.2267 36.7467 88.44C36.5334 88.6533 36.2267 88.76 35.8267 88.76ZM32.1467 83.3C32.6401 83.3 33.0734 83.18 33.4467 82.94C33.8201 82.7 34.1067 82.3467 34.3067 81.88C34.5201 81.4 34.6267 80.8067 34.6267 80.1C34.6267 79.0333 34.4001 78.24 33.9467 77.72C33.4934 77.1867 32.8934 76.92 32.1467 76.92C31.6534 76.92 31.2201 77.04 30.8467 77.28C30.4734 77.5067 30.1801 77.86 29.9667 78.34C29.7667 78.8067 29.6667 79.3933 29.6667 80.1C29.6667 81.1533 29.8934 81.9533 30.3467 82.5C30.8001 83.0333 31.4001 83.3 32.1467 83.3ZM43.2189 85.2C42.4056 85.2 41.7322 85.0533 41.1989 84.76C40.6656 84.4533 40.2656 84 39.9989 83.4C39.7456 82.8 39.6189 82.0533 39.6189 81.16V76.32C39.6189 75.8933 39.7256 75.58 39.9389 75.38C40.1522 75.1667 40.4589 75.06 40.8589 75.06C41.2589 75.06 41.5656 75.1667 41.7789 75.38C42.0056 75.58 42.1189 75.8933 42.1189 76.32V81.2C42.1189 81.8933 42.2589 82.4067 42.5389 82.74C42.8189 83.0733 43.2656 83.24 43.8789 83.24C44.5456 83.24 45.0922 83.0133 45.5189 82.56C45.9456 82.0933 46.1589 81.48 46.1589 80.72V76.32C46.1589 75.8933 46.2656 75.58 46.4789 75.38C46.6922 75.1667 46.9989 75.06 47.3989 75.06C47.7989 75.06 48.1056 75.1667 48.3189 75.38C48.5456 75.58 48.6589 75.8933 48.6589 76.32V83.88C48.6589 84.7333 48.2522 85.16 47.4389 85.16C47.0522 85.16 46.7522 85.0533 46.5389 84.84C46.3256 84.6133 46.2189 84.2933 46.2189 83.88V82.36L46.4989 82.96C46.2189 83.68 45.7922 84.2333 45.2189 84.62C44.6589 85.0067 43.9922 85.2 43.2189 85.2ZM56.0809 85.2C54.9743 85.2 54.0209 84.9933 53.2209 84.58C52.4209 84.1667 51.8009 83.58 51.3609 82.82C50.9343 82.06 50.7209 81.16 50.7209 80.12C50.7209 79.1067 50.9276 78.22 51.3409 77.46C51.7676 76.7 52.3476 76.1067 53.0809 75.68C53.8276 75.24 54.6743 75.02 55.6209 75.02C56.3143 75.02 56.9343 75.1333 57.4809 75.36C58.0409 75.5867 58.5143 75.9133 58.9009 76.34C59.3009 76.7667 59.6009 77.2867 59.8009 77.9C60.0143 78.5 60.1209 79.18 60.1209 79.94C60.1209 80.18 60.0343 80.3667 59.8609 80.5C59.7009 80.62 59.4676 80.68 59.1609 80.68H52.7409V79.24H58.3609L58.0409 79.54C58.0409 78.9267 57.9476 78.4133 57.7609 78C57.5876 77.5867 57.3276 77.2733 56.9809 77.06C56.6476 76.8333 56.2276 76.72 55.7209 76.72C55.1609 76.72 54.6809 76.8533 54.2809 77.12C53.8943 77.3733 53.5943 77.74 53.3809 78.22C53.1809 78.6867 53.0809 79.2467 53.0809 79.9V80.04C53.0809 81.1333 53.3343 81.9533 53.8409 82.5C54.3609 83.0333 55.1209 83.3 56.1209 83.3C56.4676 83.3 56.8543 83.26 57.2809 83.18C57.7209 83.0867 58.1343 82.9333 58.5209 82.72C58.8009 82.56 59.0476 82.4933 59.2609 82.52C59.4743 82.5333 59.6409 82.6067 59.7609 82.74C59.8943 82.8733 59.9743 83.04 60.0009 83.24C60.0276 83.4267 59.9876 83.62 59.8809 83.82C59.7876 84.02 59.6209 84.1933 59.3809 84.34C58.9143 84.6333 58.3743 84.8533 57.7609 85C57.1609 85.1333 56.6009 85.2 56.0809 85.2ZM65.6808 85.2C65.1074 85.2 64.5008 85.14 63.8608 85.02C63.2208 84.9 62.6474 84.6933 62.1408 84.4C61.9274 84.2667 61.7741 84.1133 61.6808 83.94C61.6008 83.7533 61.5674 83.5733 61.5808 83.4C61.6074 83.2133 61.6741 83.0533 61.7808 82.92C61.9008 82.7867 62.0474 82.7 62.2208 82.66C62.4074 82.62 62.6074 82.6533 62.8208 82.76C63.3541 83.0133 63.8541 83.1933 64.3208 83.3C64.7874 83.3933 65.2474 83.44 65.7008 83.44C66.3408 83.44 66.8141 83.3333 67.1208 83.12C67.4408 82.8933 67.6008 82.6 67.6008 82.24C67.6008 81.9333 67.4941 81.7 67.2808 81.54C67.0808 81.3667 66.7741 81.24 66.3608 81.16L64.3608 80.78C63.5341 80.62 62.9008 80.32 62.4608 79.88C62.0341 79.4267 61.8208 78.8467 61.8208 78.14C61.8208 77.5 61.9941 76.9467 62.3408 76.48C62.7008 76.0133 63.1941 75.6533 63.8208 75.4C64.4474 75.1467 65.1674 75.02 65.9808 75.02C66.5674 75.02 67.1141 75.0867 67.6208 75.22C68.1408 75.34 68.6408 75.5333 69.1208 75.8C69.3208 75.9067 69.4541 76.0467 69.5208 76.22C69.6008 76.3933 69.6208 76.5733 69.5808 76.76C69.5408 76.9333 69.4608 77.0933 69.3408 77.24C69.2208 77.3733 69.0674 77.46 68.8808 77.5C68.7074 77.5267 68.5074 77.4867 68.2808 77.38C67.8674 77.1667 67.4674 77.0133 67.0808 76.92C66.7074 76.8267 66.3474 76.78 66.0008 76.78C65.3474 76.78 64.8608 76.8933 64.5408 77.12C64.2341 77.3467 64.0808 77.6467 64.0808 78.02C64.0808 78.3 64.1741 78.5333 64.3608 78.72C64.5474 78.9067 64.8341 79.0333 65.2208 79.1L67.2208 79.48C68.0874 79.64 68.7408 79.9333 69.1808 80.36C69.6341 80.7867 69.8608 81.36 69.8608 82.08C69.8608 83.0533 69.4808 83.82 68.7208 84.38C67.9608 84.9267 66.9474 85.2 65.6808 85.2ZM76.2488 85.2C75.3821 85.2 74.6554 85.0533 74.0688 84.76C73.4954 84.4667 73.0688 84.04 72.7888 83.48C72.5088 82.9067 72.3688 82.2 72.3688 81.36V77.1H71.3288C71.0088 77.1 70.7621 77.02 70.5888 76.86C70.4154 76.6867 70.3287 76.4533 70.3287 76.16C70.3287 75.8533 70.4154 75.62 70.5888 75.46C70.7621 75.3 71.0088 75.22 71.3288 75.22H72.3688V73.4C72.3688 72.9867 72.4754 72.6733 72.6888 72.46C72.9154 72.2467 73.2288 72.14 73.6288 72.14C74.0288 72.14 74.3354 72.2467 74.5488 72.46C74.7621 72.6733 74.8688 72.9867 74.8688 73.4V75.22H76.9888C77.3088 75.22 77.5554 75.3 77.7288 75.46C77.9021 75.62 77.9888 75.8533 77.9888 76.16C77.9888 76.4533 77.9021 76.6867 77.7288 76.86C77.5554 77.02 77.3088 77.1 76.9888 77.1H74.8688V81.22C74.8688 81.86 75.0088 82.34 75.2888 82.66C75.5688 82.98 76.0221 83.14 76.6488 83.14C76.8754 83.14 77.0754 83.12 77.2488 83.08C77.4221 83.04 77.5754 83.0133 77.7088 83C77.8688 82.9867 78.0021 83.04 78.1088 83.16C78.2154 83.2667 78.2688 83.4933 78.2688 83.84C78.2688 84.1067 78.2221 84.3467 78.1288 84.56C78.0488 84.76 77.8954 84.9 77.6688 84.98C77.4954 85.0333 77.2688 85.08 76.9888 85.12C76.7088 85.1733 76.4621 85.2 76.2488 85.2ZM83.0245 85.2C82.4512 85.2 81.8445 85.14 81.2045 85.02C80.5645 84.9 79.9912 84.6933 79.4845 84.4C79.2712 84.2667 79.1179 84.1133 79.0245 83.94C78.9445 83.7533 78.9112 83.5733 78.9245 83.4C78.9512 83.2133 79.0179 83.0533 79.1245 82.92C79.2445 82.7867 79.3912 82.7 79.5645 82.66C79.7512 82.62 79.9512 82.6533 80.1645 82.76C80.6979 83.0133 81.1979 83.1933 81.6645 83.3C82.1312 83.3933 82.5912 83.44 83.0445 83.44C83.6845 83.44 84.1579 83.3333 84.4645 83.12C84.7845 82.8933 84.9445 82.6 84.9445 82.24C84.9445 81.9333 84.8379 81.7 84.6245 81.54C84.4245 81.3667 84.1179 81.24 83.7045 81.16L81.7045 80.78C80.8779 80.62 80.2445 80.32 79.8045 79.88C79.3779 79.4267 79.1645 78.8467 79.1645 78.14C79.1645 77.5 79.3379 76.9467 79.6845 76.48C80.0445 76.0133 80.5379 75.6533 81.1645 75.4C81.7912 75.1467 82.5112 75.02 83.3245 75.02C83.9112 75.02 84.4579 75.0867 84.9645 75.22C85.4845 75.34 85.9845 75.5333 86.4645 75.8C86.6645 75.9067 86.7979 76.0467 86.8645 76.22C86.9445 76.3933 86.9645 76.5733 86.9245 76.76C86.8845 76.9333 86.8045 77.0933 86.6845 77.24C86.5645 77.3733 86.4112 77.46 86.2245 77.5C86.0512 77.5267 85.8512 77.4867 85.6245 77.38C85.2112 77.1667 84.8112 77.0133 84.4245 76.92C84.0512 76.8267 83.6912 76.78 83.3445 76.78C82.6912 76.78 82.2045 76.8933 81.8845 77.12C81.5779 77.3467 81.4245 77.6467 81.4245 78.02C81.4245 78.3 81.5179 78.5333 81.7045 78.72C81.8912 78.9067 82.1779 79.0333 82.5645 79.1L84.5645 79.48C85.4312 79.64 86.0845 79.9333 86.5245 80.36C86.9779 80.7867 87.2045 81.36 87.2045 82.08C87.2045 83.0533 86.8245 83.82 86.0645 84.38C85.3045 84.9267 84.2912 85.2 83.0245 85.2Z" fill="white"/>
<mask id="mask1_75_1040" style="mask-type:alpha" maskUnits="userSpaceOnUse" x="8" y="0" width="74" height="74">
<rect x="8" width="74" height="74" fill="#D9D9D9"/>
</mask>
<g mask="url(#mask1_75_1040)">
<path fill-rule="evenodd" clip-rule="evenodd" d="M49.5094 63.324C52.5156 66.3302 56.1514 67.8333 60.4167 67.8333C64.6819 67.8333 68.3177 66.3302 71.324 63.324C74.3302 60.3177 75.8333 56.6819 75.8333 52.4167C75.8333 48.1514 74.3302 44.5156 71.324 41.5094C68.3177 38.5031 64.6819 37 60.4167 37C56.1514 37 52.5156 38.5031 49.5094 41.5094C46.5031 44.5156 45 48.1514 45 52.4167C45 56.6819 46.5031 60.3177 49.5094 63.324ZM61.9583 44.7083V51.8L66.6604 56.5021C66.9687 56.8104 67.1229 57.1701 67.1229 57.5813C67.1229 57.9924 66.9687 58.3521 66.6604 58.6604C66.3521 58.9687 65.9924 59.1229 65.5812 59.1229C65.1701 59.1229 64.8104 58.9687 64.5021 58.6604L59.8 53.9583C59.4917 53.65 59.2604 53.3031 59.1062 52.9177C58.9521 52.5323 58.875 52.134 58.875 51.7229V44.7083C58.875 44.2972 59.0292 43.9375 59.3375 43.6292C59.6458 43.3208 60.0056 43.1667 60.4167 43.1667C60.8278 43.1667 61.1875 43.3208 61.4958 43.6292C61.8042 43.9375 61.9583 44.2972 61.9583 44.7083Z" fill="#B5CE3C"/>
<path fill-rule="evenodd" clip-rule="evenodd" d="M19.0615 62.9386C20.2691 64.1462 21.7208 64.75 23.4167 64.75H37.2917C38.1653 64.75 38.8976 64.4546 39.4885 63.8636C40.0795 63.2726 40.375 62.5403 40.375 61.6667C40.375 60.7931 40.0795 60.0608 39.4885 59.4698C38.8976 58.8789 38.1653 58.5834 37.2917 58.5834H23.4167V15.4167H29.5833V21.5834C29.5833 22.457 29.8788 23.1893 30.4698 23.7802C31.0608 24.3712 31.7931 24.6667 32.6667 24.6667H57.3333C58.2069 24.6667 58.9392 24.3712 59.5302 23.7802C60.1212 23.1893 60.4167 22.457 60.4167 21.5834V15.4167H66.5833V27.75C66.5833 28.6237 66.8788 29.3559 67.4698 29.9469C68.0608 30.5379 68.7931 30.8334 69.6667 30.8334C70.5403 30.8334 71.2726 30.5379 71.8635 29.9469C72.4545 29.3559 72.75 28.6237 72.75 27.75V15.4167C72.75 13.7209 72.1462 12.2691 70.9385 11.0615C69.7309 9.85386 68.2792 9.25004 66.5833 9.25004H53.7875C53.2222 7.45143 52.1302 5.974 50.5115 4.81775C48.8927 3.6615 47.0556 3.08337 45 3.08337C43.0472 3.08337 41.2486 3.6615 39.6042 4.81775C37.9597 5.974 36.8549 7.45143 36.2896 9.25004H23.4167C21.7208 9.25004 20.2691 9.85386 19.0615 11.0615C17.8538 12.2691 17.25 13.7209 17.25 15.4167V58.5834C17.25 60.2792 17.8538 61.7309 19.0615 62.9386ZM47.1969 14.5302C46.6059 15.1212 45.8736 15.4167 45 15.4167C44.1264 15.4167 43.3941 15.1212 42.8031 14.5302C42.2122 13.9393 41.9167 13.207 41.9167 12.3334C41.9167 11.4598 42.2122 10.7275 42.8031 10.1365C43.3941 9.54553 44.1264 9.25004 45 9.25004C45.8736 9.25004 46.6059 9.54553 47.1969 10.1365C47.7878 10.7275 48.0833 11.4598 48.0833 12.3334C48.0833 13.207 47.7878 13.9393 47.1969 14.5302Z" fill="white"/>
</g>
</g>
</svg>
