<svg width="90" height="90" viewBox="0 0 90 90" fill="none" xmlns="http://www.w3.org/2000/svg">
<mask id="mask0_75_1050" style="mask-type:alpha" maskUnits="userSpaceOnUse" x="0" y="0" width="90" height="90">
<rect width="90" height="90" fill="#D9D9D9"/>
</mask>
<g mask="url(#mask0_75_1050)">
<path d="M20.2984 85.2C19.7118 85.2 19.1251 85.1533 18.5384 85.06C17.9518 84.98 17.3984 84.8533 16.8784 84.68C16.3584 84.4933 15.8918 84.2667 15.4784 84C15.2384 83.84 15.0718 83.6467 14.9784 83.42C14.8851 83.1933 14.8518 82.9733 14.8784 82.76C14.9184 82.5333 15.0051 82.34 15.1384 82.18C15.2851 82.0067 15.4651 81.9 15.6784 81.86C15.8918 81.82 16.1251 81.88 16.3784 82.04C16.9651 82.3867 17.5851 82.64 18.2384 82.8C18.8918 82.96 19.5784 83.04 20.2984 83.04C21.3518 83.04 22.1184 82.8667 22.5984 82.52C23.0784 82.16 23.3184 81.7 23.3184 81.14C23.3184 80.6733 23.1451 80.3067 22.7984 80.04C22.4651 79.7733 21.8851 79.5533 21.0584 79.38L18.8584 78.92C17.5918 78.6533 16.6451 78.2067 16.0184 77.58C15.4051 76.94 15.0984 76.1 15.0984 75.06C15.0984 74.4067 15.2318 73.8133 15.4984 73.28C15.7651 72.7467 16.1384 72.2867 16.6184 71.9C17.1118 71.5133 17.6918 71.22 18.3584 71.02C19.0384 70.8067 19.7851 70.7 20.5984 70.7C21.3984 70.7 22.1584 70.8 22.8784 71C23.5984 71.2 24.2451 71.4933 24.8184 71.88C25.0318 72.0267 25.1718 72.2067 25.2384 72.42C25.3184 72.6333 25.3384 72.8467 25.2984 73.06C25.2584 73.26 25.1651 73.4333 25.0184 73.58C24.8718 73.7267 24.6851 73.8133 24.4584 73.84C24.2451 73.8667 23.9984 73.8 23.7184 73.64C23.2251 73.36 22.7251 73.16 22.2184 73.04C21.7118 72.92 21.1651 72.86 20.5784 72.86C19.9651 72.86 19.4384 72.9467 18.9984 73.12C18.5584 73.2933 18.2184 73.54 17.9784 73.86C17.7518 74.1667 17.6384 74.5333 17.6384 74.96C17.6384 75.44 17.7984 75.8267 18.1184 76.12C18.4384 76.4 18.9851 76.62 19.7584 76.78L21.9384 77.24C23.2584 77.52 24.2384 77.96 24.8784 78.56C25.5318 79.16 25.8584 79.96 25.8584 80.96C25.8584 81.6 25.7251 82.18 25.4584 82.7C25.2051 83.22 24.8318 83.6667 24.3384 84.04C23.8584 84.4133 23.2784 84.7 22.5984 84.9C21.9184 85.1 21.1518 85.2 20.2984 85.2ZM32.6356 85.2C31.529 85.2 30.5756 84.9933 29.7756 84.58C28.9756 84.1667 28.3556 83.58 27.9156 82.82C27.489 82.06 27.2756 81.16 27.2756 80.12C27.2756 79.1067 27.4823 78.22 27.8956 77.46C28.3223 76.7 28.9023 76.1067 29.6356 75.68C30.3823 75.24 31.229 75.02 32.1756 75.02C32.869 75.02 33.489 75.1333 34.0356 75.36C34.5956 75.5867 35.069 75.9133 35.4556 76.34C35.8556 76.7667 36.1556 77.2867 36.3556 77.9C36.569 78.5 36.6756 79.18 36.6756 79.94C36.6756 80.18 36.589 80.3667 36.4156 80.5C36.2556 80.62 36.0223 80.68 35.7156 80.68H29.2956V79.24H34.9156L34.5956 79.54C34.5956 78.9267 34.5023 78.4133 34.3156 78C34.1423 77.5867 33.8823 77.2733 33.5356 77.06C33.2023 76.8333 32.7823 76.72 32.2756 76.72C31.7156 76.72 31.2356 76.8533 30.8356 77.12C30.449 77.3733 30.149 77.74 29.9356 78.22C29.7356 78.6867 29.6356 79.2467 29.6356 79.9V80.04C29.6356 81.1333 29.889 81.9533 30.3956 82.5C30.9156 83.0333 31.6756 83.3 32.6756 83.3C33.0223 83.3 33.409 83.26 33.8356 83.18C34.2756 83.0867 34.689 82.9333 35.0756 82.72C35.3556 82.56 35.6023 82.4933 35.8156 82.52C36.029 82.5333 36.1956 82.6067 36.3156 82.74C36.449 82.8733 36.529 83.04 36.5556 83.24C36.5823 83.4267 36.5423 83.62 36.4356 83.82C36.3423 84.02 36.1756 84.1933 35.9356 84.34C35.469 84.6333 34.929 84.8533 34.3156 85C33.7156 85.1333 33.1556 85.2 32.6356 85.2ZM41.8755 85.2C41.1688 85.2 40.5355 85.0667 39.9755 84.8C39.4288 84.52 38.9955 84.1467 38.6755 83.68C38.3688 83.2133 38.2155 82.6867 38.2155 82.1C38.2155 81.38 38.4021 80.8133 38.7755 80.4C39.1488 79.9733 39.7555 79.6667 40.5955 79.48C41.4355 79.2933 42.5621 79.2 43.9755 79.2H44.9755V80.64H43.9955C43.1688 80.64 42.5088 80.68 42.0155 80.76C41.5221 80.84 41.1688 80.98 40.9555 81.18C40.7555 81.3667 40.6555 81.6333 40.6555 81.98C40.6555 82.42 40.8088 82.78 41.1155 83.06C41.4221 83.34 41.8488 83.48 42.3955 83.48C42.8355 83.48 43.2221 83.38 43.5555 83.18C43.9021 82.9667 44.1755 82.68 44.3755 82.32C44.5755 81.96 44.6755 81.5467 44.6755 81.08V78.78C44.6755 78.1133 44.5288 77.6333 44.2355 77.34C43.9421 77.0467 43.4488 76.9 42.7555 76.9C42.3688 76.9 41.9488 76.9467 41.4955 77.04C41.0555 77.1333 40.5888 77.2933 40.0955 77.52C39.8421 77.64 39.6155 77.6733 39.4155 77.62C39.2288 77.5667 39.0821 77.46 38.9755 77.3C38.8688 77.1267 38.8155 76.94 38.8155 76.74C38.8155 76.54 38.8688 76.3467 38.9755 76.16C39.0821 75.96 39.2621 75.8133 39.5155 75.72C40.1288 75.4667 40.7155 75.2867 41.2755 75.18C41.8488 75.0733 42.3688 75.02 42.8355 75.02C43.7955 75.02 44.5821 75.1667 45.1955 75.46C45.8221 75.7533 46.2888 76.2 46.5955 76.8C46.9021 77.3867 47.0555 78.1467 47.0555 79.08V83.88C47.0555 84.2933 46.9555 84.6133 46.7555 84.84C46.5555 85.0533 46.2688 85.16 45.8955 85.16C45.5221 85.16 45.2288 85.0533 45.0155 84.84C44.8155 84.6133 44.7155 84.2933 44.7155 83.88V82.92H44.8755C44.7821 83.3867 44.5955 83.7933 44.3155 84.14C44.0488 84.4733 43.7088 84.7333 43.2955 84.92C42.8821 85.1067 42.4088 85.2 41.8755 85.2ZM50.873 85.16C50.4596 85.16 50.1396 85.0533 49.913 84.84C49.6996 84.6133 49.593 84.2933 49.593 83.88V76.32C49.593 75.9067 49.6996 75.5933 49.913 75.38C50.1263 75.1667 50.4263 75.06 50.813 75.06C51.1996 75.06 51.4996 75.1667 51.713 75.38C51.9263 75.5933 52.033 75.9067 52.033 76.32V77.58H51.833C52.0196 76.78 52.3863 76.1733 52.933 75.76C53.4796 75.3467 54.2063 75.1 55.113 75.02C55.393 74.9933 55.613 75.0667 55.773 75.24C55.9463 75.4 56.0463 75.6533 56.073 76C56.0996 76.3333 56.0196 76.6067 55.833 76.82C55.6596 77.02 55.393 77.14 55.033 77.18L54.593 77.22C53.7796 77.3 53.1663 77.5533 52.753 77.98C52.3396 78.3933 52.133 78.98 52.133 79.74V83.88C52.133 84.2933 52.0263 84.6133 51.813 84.84C51.5996 85.0533 51.2863 85.16 50.873 85.16ZM61.7888 85.2C60.7621 85.2 59.8688 84.9933 59.1088 84.58C58.3488 84.1533 57.7621 83.5533 57.3488 82.78C56.9354 82.0067 56.7288 81.1 56.7288 80.06C56.7288 79.2733 56.8421 78.5733 57.0688 77.96C57.3088 77.3333 57.6488 76.8067 58.0888 76.38C58.5288 75.94 59.0621 75.6067 59.6888 75.38C60.3154 75.14 61.0154 75.02 61.7888 75.02C62.2288 75.02 62.7021 75.08 63.2088 75.2C63.7288 75.32 64.2154 75.52 64.6688 75.8C64.8821 75.9333 65.0221 76.0933 65.0888 76.28C65.1554 76.4667 65.1688 76.66 65.1288 76.86C65.0888 77.0467 65.0021 77.2133 64.8688 77.36C64.7488 77.4933 64.5954 77.58 64.4088 77.62C64.2221 77.6467 64.0154 77.6 63.7888 77.48C63.4954 77.3067 63.1954 77.18 62.8888 77.1C62.5821 77.0067 62.2888 76.96 62.0088 76.96C61.5688 76.96 61.1821 77.0333 60.8488 77.18C60.5154 77.3133 60.2288 77.5133 59.9888 77.78C59.7621 78.0333 59.5888 78.3533 59.4688 78.74C59.3488 79.1267 59.2888 79.5733 59.2888 80.08C59.2888 81.0667 59.5221 81.8467 59.9888 82.42C60.4688 82.98 61.1421 83.26 62.0088 83.26C62.2888 83.26 62.5754 83.22 62.8688 83.14C63.1754 83.06 63.4821 82.9333 63.7888 82.76C64.0154 82.64 64.2154 82.6 64.3888 82.64C64.5754 82.68 64.7288 82.7733 64.8488 82.92C64.9688 83.0533 65.0421 83.22 65.0688 83.42C65.0954 83.6067 65.0688 83.7933 64.9888 83.98C64.9221 84.1667 64.7888 84.32 64.5888 84.44C64.1488 84.7067 63.6821 84.9 63.1888 85.02C62.6954 85.14 62.2288 85.2 61.7888 85.2ZM67.9423 85.16C67.5423 85.16 67.2357 85.0533 67.0223 84.84C66.809 84.6133 66.7023 84.2933 66.7023 83.88V72C66.7023 71.5867 66.809 71.2733 67.0223 71.06C67.2357 70.8467 67.5423 70.74 67.9423 70.74C68.3423 70.74 68.649 70.8467 68.8623 71.06C69.089 71.2733 69.2023 71.5867 69.2023 72V77.18H68.9223C69.2157 76.4733 69.669 75.94 70.2823 75.58C70.909 75.2067 71.6157 75.02 72.4023 75.02C73.189 75.02 73.8357 75.1667 74.3423 75.46C74.849 75.7533 75.229 76.2 75.4823 76.8C75.7357 77.3867 75.8623 78.1333 75.8623 79.04V83.88C75.8623 84.2933 75.7557 84.6133 75.5423 84.84C75.329 85.0533 75.0223 85.16 74.6223 85.16C74.2223 85.16 73.909 85.0533 73.6823 84.84C73.469 84.6133 73.3623 84.2933 73.3623 83.88V79.16C73.3623 78.4 73.2157 77.8467 72.9223 77.5C72.6423 77.1533 72.2023 76.98 71.6023 76.98C70.869 76.98 70.2823 77.2133 69.8423 77.68C69.4157 78.1333 69.2023 78.74 69.2023 79.5V83.88C69.2023 84.7333 68.7823 85.16 67.9423 85.16Z" fill="white"/>
<mask id="mask1_75_1050" style="mask-type:alpha" maskUnits="userSpaceOnUse" x="3" y="-5" width="85" height="85">
<rect x="3" y="-5" width="85" height="85" fill="#D9D9D9"/>
</mask>
<g mask="url(#mask1_75_1050)">
<path d="M66.95 68.8671C60.2149 62.2502 56.1193 58.2264 49.0902 51.3207C47.6378 52.3748 45.9561 53.2139 44.0451 53.8379C42.1342 54.4619 40.0791 54.7739 37.88 54.7739C32.2493 54.7739 27.4731 52.8475 23.5516 48.9947C19.6305 45.1424 17.6699 40.4503 17.6699 34.9185C17.6699 29.3866 19.6305 24.6945 23.5516 20.8422C27.4731 16.9894 32.2493 15.063 37.88 15.063C43.5106 15.063 48.2865 16.9894 52.2076 20.8422C56.1292 24.6945 58.09 29.3866 58.09 34.9185C58.09 37.1067 57.7724 39.1257 57.1372 40.9755C56.5021 42.8252 55.648 44.45 54.5751 45.8499C54.5751 45.8499 70.8897 61.6692 72.5455 63.5443C74.2013 65.4193 72.5455 67.0752 71.7176 67.9031C70.8897 68.731 68.8361 70.7202 66.95 68.8671ZM37.88 47.0645C41.3302 47.0645 44.2531 45.8877 46.6487 43.5341C49.0448 41.1801 50.2429 38.3082 50.2429 34.9185C50.2429 31.5287 49.0448 28.6568 46.6487 26.3028C44.2531 23.9492 41.3302 22.7724 37.88 22.7724C34.4297 22.7724 31.5065 23.9492 29.1104 26.3028C26.7148 28.6568 25.517 31.5287 25.517 34.9185C25.517 38.3082 26.7148 41.1801 29.1104 43.5341C31.5065 45.8877 34.4297 47.0645 37.88 47.0645Z" fill="#B5CE3C"/>
<path fill-rule="evenodd" clip-rule="evenodd" d="M36.2235 62.8878C39.5066 64.0365 42.5761 65.6642 45.4318 67.7709C48.2652 65.5963 51.3461 63.9515 54.6747 62.8365C55.3748 62.602 56.0796 62.3923 56.7891 62.2071C55.4254 60.8669 54.0171 59.4812 52.4883 57.9721C50.0667 58.8315 47.7373 59.9683 45.5 61.3826V55.7097C45.2658 55.7759 45.0058 55.8543 44.7122 55.9511C42.5869 56.6517 40.3013 57.002 37.8555 57.002C31.5933 57.002 26.2815 54.8392 21.9201 50.5136C17.5592 46.1886 15.3788 40.9207 15.3788 34.7099C15.3788 28.4992 17.5592 23.2313 21.9201 18.9062C23.4598 17.3791 25.118 16.1216 26.8947 15.1336C26.604 15.1266 26.3128 15.1231 26.0208 15.1231C23.3374 15.1231 20.6959 15.415 18.0964 15.9988C15.4968 16.582 12.9984 17.4571 10.6013 18.6241C9.88352 18.9192 9.32276 19.3902 8.91901 20.0372C8.51467 20.6841 8.3125 21.3892 8.3125 22.1525V60.5379C8.3125 61.9186 8.88241 62.9855 10.0222 63.7387C11.1621 64.4925 12.363 64.579 13.625 63.9981C15.5593 63.0673 17.5686 62.3622 19.6529 61.8829C21.7372 61.4042 23.8598 61.1648 26.0208 61.1648C29.5401 61.1648 32.941 61.7391 36.2235 62.8878ZM67.7628 55.9381C70.2434 58.4417 72.715 60.9458 74.5683 62.8448C75.4495 63.1626 76.3169 63.5243 77.1705 63.93C78.501 64.4884 79.7529 64.3963 80.9264 63.6537C82.1005 62.9117 82.6875 61.8504 82.6875 60.4697V21.8797C82.6875 21.2304 82.5364 20.6219 82.2342 20.054C81.9325 19.4868 81.4798 19.0556 80.8759 18.7604C80.3217 18.4246 79.7529 18.1454 79.1697 17.9228C78.586 17.7003 77.9877 17.4981 77.375 17.3163V57.0919C77.375 57.4095 77.2673 57.5969 77.0518 57.6541C76.8358 57.7108 76.6029 57.7049 76.3532 57.6364C74.1509 56.9511 72.2133 56.4824 70.5405 56.2304C69.664 56.0984 68.7382 56.0009 67.7628 55.9381ZM58.691 46.8138L70.2917 36.3731V2.72729L53.9514 19.0676C58.2053 23.3621 60.3322 28.5762 60.3322 34.7099C60.3322 37.1667 59.979 39.4335 59.2726 41.5102C59.035 42.2087 58.9079 42.7407 58.7983 43.1989C58.5822 44.103 58.4347 44.7201 57.6428 45.7631C57.6428 45.7631 58.0278 46.1487 58.691 46.8138Z" fill="white"/>
</g>
</g>
</svg>
