<svg width="107" height="106" viewBox="0 0 107 106" fill="none" xmlns="http://www.w3.org/2000/svg">
<path d="M20.4081 82.3831C25.1229 78.8849 30.2592 76.1221 35.8171 74.0947C41.3741 72.0683 47.2888 71.0551 53.5614 71.0551C59.8339 71.0551 65.7486 72.0683 71.3056 74.0947C76.8635 76.1221 81.9998 78.8849 86.7146 82.3831C90.1629 78.5927 92.8951 74.2052 94.9114 69.2205C96.9277 64.2357 97.9358 58.8382 97.9358 53.028C97.9358 40.7325 93.6139 30.263 84.9701 21.6192C76.3264 12.9754 65.8568 8.65352 53.5614 8.65352C41.2659 8.65352 30.7963 12.9754 22.1526 21.6192C13.5088 30.263 9.18691 40.7325 9.18691 53.028C9.18691 58.8382 10.195 64.2357 12.2113 69.2205C14.2276 74.2052 16.9598 78.5927 20.4081 82.3831ZM53.5614 57.1881C48.498 57.1881 44.2279 55.4492 40.751 51.9713C37.2732 48.4944 35.5342 44.2243 35.5342 39.161C35.5342 34.0976 37.2732 29.8275 40.751 26.3506C44.2279 22.8728 48.498 21.1338 53.5614 21.1338C58.6247 21.1338 62.8948 22.8728 66.3717 26.3506C69.8496 29.8275 71.5885 34.0976 71.5885 39.161C71.5885 44.2243 69.8496 48.4944 66.3717 51.9713C62.8948 55.4492 58.6247 57.1881 53.5614 57.1881ZM53.5614 105.723C46.2442 105.723 39.38 104.347 32.9688 101.594C26.5577 98.8423 20.9808 95.0945 16.2383 90.351C11.4948 85.6085 7.74705 80.0317 4.99491 73.6205C2.24277 67.2093 0.866699 60.3451 0.866699 53.028C0.866699 45.7108 2.24277 38.8466 4.99491 32.4355C7.74705 26.0243 11.4948 20.4474 16.2383 15.7049C20.9808 10.9615 26.5577 7.21367 32.9688 4.46153C39.38 1.70939 46.2442 0.333313 53.5614 0.333313C60.8785 0.333313 67.7427 1.70939 74.1539 4.46153C80.5651 7.21367 86.1419 10.9615 90.8844 15.7049C95.6279 20.4474 99.3757 26.0243 102.128 32.4355C104.88 38.8466 106.256 45.7108 106.256 53.028C106.256 60.3451 104.88 67.2093 102.128 73.6205C99.3757 80.0317 95.6279 85.6085 90.8844 90.351C86.1419 95.0945 80.5651 98.8423 74.1539 101.594C67.7427 104.347 60.8785 105.723 53.5614 105.723Z" fill="#FFFFFF"/>
</svg>
