<svg width="190" height="92" viewBox="0 0 190 92" fill="none" xmlns="http://www.w3.org/2000/svg">
<path d="M6.68511 79.4617C5.84511 79.4617 5.19711 79.2337 4.74111 78.7777C4.30911 78.2977 4.09311 77.6257 4.09311 76.7617V56.2417C4.09311 55.3297 4.30911 54.6337 4.74111 54.1537C5.19711 53.6737 5.79711 53.4337 6.54111 53.4337C7.18911 53.4337 7.68111 53.5657 8.01711 53.8297C8.37711 54.0697 8.78511 54.4777 9.24111 55.0537L21.8771 71.1457H20.9051V56.0977C20.9051 55.2577 21.1211 54.6097 21.5531 54.1537C22.0091 53.6737 22.6571 53.4337 23.4971 53.4337C24.3371 53.4337 24.9731 53.6737 25.4051 54.1537C25.8611 54.6097 26.0891 55.2577 26.0891 56.0977V76.8697C26.0891 77.6617 25.8851 78.2977 25.4771 78.7777C25.0691 79.2337 24.5171 79.4617 23.8211 79.4617C23.1491 79.4617 22.6091 79.3297 22.2011 79.0657C21.8171 78.8017 21.3971 78.3817 20.9411 77.8057L8.34111 61.7137H9.27711V76.7617C9.27711 77.6257 9.06111 78.2977 8.62911 78.7777C8.19711 79.2337 7.54911 79.4617 6.68511 79.4617ZM36.7066 79.5337C35.4106 79.5337 34.2466 79.2817 33.2146 78.7777C32.1826 78.2737 31.3786 77.5897 30.8026 76.7257C30.2266 75.8617 29.9386 74.8897 29.9386 73.8097C29.9386 72.5137 30.2746 71.4937 30.9466 70.7497C31.6186 69.9817 32.7106 69.4417 34.2226 69.1297C35.7346 68.7937 37.7386 68.6257 40.2346 68.6257H42.1426V71.4337H40.2706C39.0466 71.4337 38.0506 71.5057 37.2826 71.6497C36.5386 71.7697 35.9986 71.9857 35.6626 72.2977C35.3506 72.6097 35.1946 73.0417 35.1946 73.5937C35.1946 74.2657 35.4226 74.8177 35.8786 75.2497C36.3586 75.6817 37.0426 75.8977 37.9306 75.8977C38.6266 75.8977 39.2386 75.7417 39.7666 75.4297C40.3186 75.0937 40.7506 74.6497 41.0626 74.0977C41.3746 73.5217 41.5306 72.8737 41.5306 72.1537V68.0137C41.5306 66.9577 41.2906 66.2137 40.8106 65.7817C40.3306 65.3257 39.5146 65.0977 38.3626 65.0977C37.7146 65.0977 37.0066 65.1817 36.2386 65.3497C35.4946 65.4937 34.6666 65.7457 33.7546 66.1057C33.2266 66.3457 32.7586 66.4057 32.3506 66.2857C31.9426 66.1417 31.6306 65.9017 31.4146 65.5657C31.1986 65.2057 31.0906 64.8217 31.0906 64.4137C31.0906 63.9817 31.2106 63.5737 31.4506 63.1897C31.6906 62.7817 32.0866 62.4817 32.6386 62.2897C33.7666 61.8337 34.8226 61.5217 35.8066 61.3537C36.8146 61.1857 37.7386 61.1017 38.5786 61.1017C40.4266 61.1017 41.9386 61.3777 43.1146 61.9297C44.3146 62.4577 45.2146 63.2857 45.8146 64.4137C46.4146 65.5177 46.7146 66.9457 46.7146 68.6977V76.6897C46.7146 77.5777 46.4986 78.2617 46.0666 78.7417C45.6346 79.2217 45.0106 79.4617 44.1946 79.4617C43.3786 79.4617 42.7426 79.2217 42.2866 78.7417C41.8546 78.2617 41.6386 77.5777 41.6386 76.6897V75.3577L41.8906 75.5737C41.7466 76.3897 41.4346 77.0977 40.9546 77.6977C40.4986 78.2737 39.9106 78.7297 39.1906 79.0657C38.4706 79.3777 37.6426 79.5337 36.7066 79.5337ZM53.5056 79.4617C52.6176 79.4617 51.9336 79.2217 51.4536 78.7417C50.9976 78.2617 50.7696 77.5777 50.7696 76.6897V63.9097C50.7696 63.0217 50.9976 62.3497 51.4536 61.8937C51.9336 61.4137 52.5936 61.1737 53.4336 61.1737C54.2976 61.1737 54.9576 61.4137 55.4136 61.8937C55.8696 62.3497 56.0976 63.0217 56.0976 63.9097V65.9617L55.7016 64.7737C56.2536 63.5977 57.0696 62.6977 58.1496 62.0737C59.2536 61.4257 60.5016 61.1017 61.8936 61.1017C63.3096 61.1017 64.4736 61.3777 65.3856 61.9297C66.2976 62.4577 66.9816 63.2737 67.4376 64.3777C67.8936 65.4577 68.1216 66.8377 68.1216 68.5177V76.6897C68.1216 77.5777 67.8816 78.2617 67.4016 78.7417C66.9456 79.2217 66.2736 79.4617 65.3856 79.4617C64.5216 79.4617 63.8496 79.2217 63.3696 78.7417C62.9136 78.2617 62.6856 77.5777 62.6856 76.6897V68.7697C62.6856 67.5457 62.4576 66.6697 62.0016 66.1417C61.5696 65.5897 60.8976 65.3137 59.9856 65.3137C58.8336 65.3137 57.9096 65.6737 57.2136 66.3937C56.5416 67.1137 56.2056 68.0737 56.2056 69.2737V76.6897C56.2056 78.5377 55.3056 79.4617 53.5056 79.4617ZM80.6758 86.0137C79.3798 86.0137 78.1318 85.9057 76.9318 85.6897C75.7558 85.4737 74.7118 85.1497 73.7998 84.7177C73.2478 84.4777 72.8518 84.1657 72.6118 83.7817C72.3958 83.3977 72.2998 82.9897 72.3238 82.5577C72.3718 82.1257 72.5158 81.7417 72.7558 81.4057C73.0198 81.0697 73.3438 80.8297 73.7278 80.6857C74.1118 80.5657 74.5198 80.6017 74.9518 80.7937C76.0078 81.2737 76.9798 81.5857 77.8678 81.7297C78.7798 81.8737 79.5598 81.9457 80.2078 81.9457C81.7438 81.9457 82.8958 81.5977 83.6638 80.9017C84.4318 80.2057 84.8158 79.1377 84.8158 77.6977V74.9617H85.1398C84.7798 76.0657 84.0358 76.9657 82.9078 77.6617C81.7798 78.3577 80.5318 78.7057 79.1638 78.7057C77.5798 78.7057 76.1998 78.3457 75.0238 77.6257C73.8478 76.8817 72.9358 75.8497 72.2878 74.5297C71.6398 73.1857 71.3158 71.6377 71.3158 69.8857C71.3158 68.5657 71.4958 67.3657 71.8558 66.2857C72.2398 65.2057 72.7678 64.2817 73.4398 63.5137C74.1358 62.7457 74.9638 62.1577 75.9238 61.7497C76.9078 61.3177 77.9878 61.1017 79.1638 61.1017C80.5798 61.1017 81.8278 61.4497 82.9078 62.1457C84.0118 62.8177 84.7438 63.7057 85.1038 64.8097L84.7438 65.9617V63.9097C84.7438 63.0217 84.9718 62.3497 85.4278 61.8937C85.9078 61.4137 86.5798 61.1737 87.4438 61.1737C88.3078 61.1737 88.9678 61.4137 89.4238 61.8937C89.8798 62.3497 90.1078 63.0217 90.1078 63.9097V77.0857C90.1078 80.0377 89.2918 82.2577 87.6598 83.7457C86.0518 85.2577 83.7238 86.0137 80.6758 86.0137ZM80.7838 74.6377C81.5998 74.6377 82.2958 74.4457 82.8718 74.0617C83.4718 73.6777 83.9398 73.1377 84.2758 72.4417C84.6118 71.7217 84.7798 70.8697 84.7798 69.8857C84.7798 68.3977 84.4078 67.2457 83.6638 66.4297C82.9438 65.5897 81.9838 65.1697 80.7838 65.1697C79.9678 65.1697 79.2598 65.3617 78.6598 65.7457C78.0598 66.1057 77.5918 66.6457 77.2558 67.3657C76.9438 68.0617 76.7878 68.9017 76.7878 69.8857C76.7878 71.3737 77.1478 72.5377 77.8678 73.3777C78.5878 74.2177 79.5598 74.6377 80.7838 74.6377ZM101.096 79.5337C100.04 79.5337 98.9482 79.4377 97.8202 79.2457C96.7162 79.0537 95.7082 78.7297 94.7962 78.2737C94.3162 78.0337 93.9682 77.7337 93.7522 77.3737C93.5602 76.9897 93.4762 76.6057 93.5002 76.2217C93.5242 75.8377 93.6442 75.4897 93.8602 75.1777C94.1002 74.8657 94.4002 74.6617 94.7602 74.5657C95.1442 74.4457 95.5642 74.4817 96.0202 74.6737C97.0042 75.0817 97.9042 75.3697 98.7202 75.5377C99.5362 75.7057 100.34 75.7897 101.132 75.7897C102.164 75.7897 102.908 75.6337 103.364 75.3217C103.844 74.9857 104.084 74.5537 104.084 74.0257C104.084 73.5457 103.928 73.1857 103.616 72.9457C103.304 72.7057 102.848 72.5377 102.248 72.4417L98.4682 71.7577C96.9802 71.4937 95.8282 70.9537 95.0122 70.1377C94.2202 69.2977 93.8242 68.2297 93.8242 66.9337C93.8242 65.7337 94.1602 64.7017 94.8322 63.8377C95.5042 62.9497 96.4282 62.2777 97.6042 61.8217C98.8042 61.3417 100.16 61.1017 101.672 61.1017C102.752 61.1017 103.748 61.1977 104.66 61.3897C105.572 61.5817 106.448 61.8937 107.288 62.3257C107.72 62.5417 108.02 62.8297 108.188 63.1897C108.38 63.5497 108.44 63.9217 108.368 64.3057C108.32 64.6897 108.176 65.0377 107.936 65.3497C107.696 65.6617 107.384 65.8657 107 65.9617C106.64 66.0577 106.22 66.0097 105.74 65.8177C104.972 65.4577 104.264 65.2057 103.616 65.0617C102.968 64.8937 102.344 64.8097 101.744 64.8097C100.664 64.8097 99.8842 64.9897 99.4042 65.3497C98.9242 65.6857 98.6842 66.1177 98.6842 66.6457C98.6842 67.0537 98.8162 67.4017 99.0802 67.6897C99.3682 67.9537 99.8002 68.1337 100.376 68.2297L104.156 68.9137C105.716 69.1777 106.904 69.7057 107.72 70.4977C108.536 71.2657 108.944 72.3217 108.944 73.6657C108.944 75.4897 108.224 76.9297 106.784 77.9857C105.368 79.0177 103.472 79.5337 101.096 79.5337ZM118.563 79.5337C117.075 79.5337 115.839 79.2577 114.855 78.7057C113.871 78.1537 113.139 77.3257 112.659 76.2217C112.203 75.0937 111.975 73.7017 111.975 72.0457V63.9097C111.975 62.9977 112.203 62.3137 112.659 61.8577C113.139 61.4017 113.811 61.1737 114.675 61.1737C115.539 61.1737 116.211 61.4017 116.691 61.8577C117.171 62.3137 117.411 62.9977 117.411 63.9097V72.1897C117.411 73.2457 117.627 74.0377 118.059 74.5657C118.491 75.0697 119.175 75.3217 120.111 75.3217C121.143 75.3217 121.983 74.9617 122.631 74.2417C123.303 73.4977 123.639 72.5257 123.639 71.3257V63.9097C123.639 62.9977 123.867 62.3137 124.323 61.8577C124.803 61.4017 125.475 61.1737 126.339 61.1737C127.227 61.1737 127.899 61.4017 128.355 61.8577C128.835 62.3137 129.075 62.9977 129.075 63.9097V76.6897C129.075 78.5377 128.199 79.4617 126.447 79.4617C125.583 79.4617 124.923 79.2217 124.467 78.7417C124.011 78.2617 123.783 77.5777 123.783 76.6897V74.2777L124.323 75.6817C123.795 76.9057 123.039 77.8537 122.055 78.5257C121.071 79.1977 119.907 79.5337 118.563 79.5337ZM142.461 79.5337C140.373 79.5337 138.573 79.1617 137.061 78.4177C135.573 77.6497 134.421 76.5817 133.605 75.2137C132.813 73.8217 132.417 72.1897 132.417 70.3177C132.417 68.4937 132.801 66.8977 133.569 65.5297C134.337 64.1377 135.405 63.0577 136.773 62.2897C138.165 61.4977 139.737 61.1017 141.489 61.1017C142.761 61.1017 143.913 61.3177 144.945 61.7497C145.977 62.1577 146.865 62.7577 147.609 63.5497C148.353 64.3177 148.917 65.2657 149.301 66.3937C149.685 67.4977 149.877 68.7337 149.877 70.1017C149.877 70.5577 149.733 70.9057 149.445 71.1457C149.157 71.3617 148.737 71.4697 148.185 71.4697H136.881V68.6617H145.953L145.377 69.1657C145.377 68.1817 145.233 67.3657 144.945 66.7177C144.657 66.0457 144.237 65.5417 143.685 65.2057C143.157 64.8697 142.497 64.7017 141.705 64.7017C140.817 64.7017 140.061 64.9057 139.437 65.3137C138.813 65.7217 138.333 66.3097 137.997 67.0777C137.661 67.8457 137.493 68.7697 137.493 69.8497V70.1377C137.493 71.9617 137.913 73.3057 138.753 74.1697C139.617 75.0337 140.889 75.4657 142.569 75.4657C143.145 75.4657 143.805 75.3937 144.549 75.2497C145.293 75.1057 145.989 74.8777 146.637 74.5657C147.189 74.3017 147.681 74.2177 148.113 74.3137C148.545 74.3857 148.881 74.5777 149.121 74.8897C149.361 75.2017 149.493 75.5617 149.517 75.9697C149.565 76.3777 149.481 76.7857 149.265 77.1937C149.049 77.5777 148.689 77.9017 148.185 78.1657C147.369 78.6217 146.445 78.9577 145.413 79.1737C144.405 79.4137 143.421 79.5337 142.461 79.5337ZM156.423 79.1377C155.487 79.1377 154.767 78.8857 154.263 78.3817C153.759 77.8777 153.507 77.1577 153.507 76.2217V56.6737C153.507 55.7377 153.759 55.0177 154.263 54.5137C154.767 54.0097 155.487 53.7577 156.423 53.7577H163.443C167.787 53.7577 171.135 54.8617 173.487 57.0697C175.863 59.2537 177.051 62.3737 177.051 66.4297C177.051 68.4697 176.739 70.2817 176.115 71.8657C175.515 73.4257 174.639 74.7457 173.487 75.8257C172.335 76.9057 170.919 77.7337 169.239 78.3097C167.559 78.8617 165.627 79.1377 163.443 79.1377H156.423ZM159.087 74.5657H163.119C164.487 74.5657 165.675 74.3977 166.683 74.0617C167.691 73.7257 168.531 73.2217 169.203 72.5497C169.875 71.8777 170.379 71.0377 170.715 70.0297C171.051 68.9977 171.219 67.7977 171.219 66.4297C171.219 63.6937 170.535 61.6657 169.167 60.3457C167.823 59.0017 165.807 58.3297 163.119 58.3297H159.087V74.5657ZM183.654 79.4257C182.766 79.4257 182.082 79.1737 181.602 78.6697C181.146 78.1417 180.918 77.4097 180.918 76.4737V64.1617C180.918 63.2017 181.146 62.4697 181.602 61.9657C182.082 61.4377 182.766 61.1737 183.654 61.1737C184.518 61.1737 185.178 61.4377 185.634 61.9657C186.114 62.4697 186.354 63.2017 186.354 64.1617V76.4737C186.354 77.4097 186.126 78.1417 185.67 78.6697C185.214 79.1737 184.542 79.4257 183.654 79.4257ZM183.654 58.2217C182.646 58.2217 181.866 57.9937 181.314 57.5377C180.786 57.0577 180.522 56.3857 180.522 55.5217C180.522 54.6337 180.786 53.9617 181.314 53.5057C181.866 53.0257 182.646 52.7857 183.654 52.7857C184.662 52.7857 185.43 53.0257 185.958 53.5057C186.486 53.9617 186.75 54.6337 186.75 55.5217C186.75 56.3857 186.486 57.0577 185.958 57.5377C185.43 57.9937 184.662 58.2217 183.654 58.2217Z" fill="white"/>
<mask id="mask0_18_65" style="mask-type:luminance" maskUnits="userSpaceOnUse" x="15" y="21" width="70" height="28">
<path d="M15.375 21.1406H84.5625V48.0469H15.375V21.1406Z" fill="white"/>
</mask>
<g mask="url(#mask0_18_65)">
<mask id="mask1_18_65" style="mask-type:luminance" maskUnits="userSpaceOnUse" x="16" y="22" width="68" height="26">
<path d="M26.8914 34.4285C59.9386 66.8076 82.7534 31.0877 83.0687 30.8174C64.413 40.8547 43.1597 42.7916 16.9817 22.1465C20.39 26.9962 23.6407 30.7874 26.8914 34.4285Z" fill="white"/>
</mask>
<g mask="url(#mask1_18_65)">
<path d="M44.2858 99.3519L105.058 48.3547L55.7645 -10.3901L-5.00732 40.5996L44.2858 99.3519Z" fill="#B5CE3C"/>
</g>
</g>
<mask id="mask2_18_65" style="mask-type:luminance" maskUnits="userSpaceOnUse" x="0" y="0" width="123" height="37">
<path d="M0 0H123V36.5156H0V0Z" fill="white"/>
</mask>
<g mask="url(#mask2_18_65)">
<mask id="mask3_18_65" style="mask-type:luminance" maskUnits="userSpaceOnUse" x="1" y="1" width="122" height="34">
<path d="M85.6212 10.8105C63.3469 19.5416 36.0353 28.2726 1.03613 6.6665C13.4833 17.1092 52.3712 56.2224 96.4692 19.0236C105.283 11.5913 112.903 5.86323 122.67 1.9519C120.988 1.60658 119.276 1.44141 117.527 1.44141C108.068 1.44141 97.5653 6.12598 85.6212 10.8105Z" fill="white"/>
</mask>
<g mask="url(#mask3_18_65)">
<path d="M31.4483 -51.2301L146.393 15.1422L92.2651 108.894L-22.687 42.5289L31.4483 -51.2301Z" fill="#B5CE3C"/>
</g>
</g>
</svg>
