<svg width="190" height="96" viewBox="0 0 190 96" fill="none" xmlns="http://www.w3.org/2000/svg">
<path d="M75.6967 50.0152C82.7577 50.0152 87.4807 51.6514 89.5645 52.5742C90.3305 52.8375 92.5014 53.6286 92.9679 53.6545V13.7774C90.2034 10.586 82.077 8.00225 73.6547 8.00225C63.0179 8.00225 54.0003 11.8002 52 14.3581V51.5997C52 53.3406 53.659 54 55.6593 54C57.2748 54 58.3385 53.6568 59.3604 53.129C61.8708 51.7313 67.7827 50.0152 75.6967 50.0152ZM115.347 50.0163C123.259 50.0163 129.131 51.7313 131.683 53.129C132.66 53.6298 133.725 53.9989 135.341 53.9989C137.341 53.9989 139 53.3406 139 51.5997V14.3558C137 11.7969 128.024 8 117.387 8C108.965 8 100.838 10.5838 98.0739 13.7752V53.7085C98.5422 53.6815 100.711 52.8645 101.519 52.5742C103.561 51.6514 108.284 50.0163 115.347 50.0163Z" fill="#B5CE3C"/>
<path d="M6.68511 84.324C5.84511 84.324 5.19711 84.096 4.74111 83.64C4.30911 83.16 4.09311 82.488 4.09311 81.624V61.104C4.09311 60.192 4.30911 59.496 4.74111 59.016C5.19711 58.536 5.79711 58.296 6.54111 58.296C7.18911 58.296 7.68111 58.428 8.01711 58.692C8.37711 58.932 8.78511 59.34 9.24111 59.916L21.8771 76.008H20.9051V60.96C20.9051 60.12 21.1211 59.472 21.5531 59.016C22.0091 58.536 22.6571 58.296 23.4971 58.296C24.3371 58.296 24.9731 58.536 25.4051 59.016C25.8611 59.472 26.0891 60.12 26.0891 60.96V81.732C26.0891 82.524 25.8851 83.16 25.4771 83.64C25.0691 84.096 24.5171 84.324 23.8211 84.324C23.1491 84.324 22.6091 84.192 22.2011 83.928C21.8171 83.664 21.3971 83.244 20.9411 82.668L8.34111 66.576H9.27711V81.624C9.27711 82.488 9.06111 83.16 8.62911 83.64C8.19711 84.096 7.54911 84.324 6.68511 84.324ZM36.7066 84.396C35.4106 84.396 34.2466 84.144 33.2146 83.64C32.1826 83.136 31.3786 82.452 30.8026 81.588C30.2266 80.724 29.9386 79.752 29.9386 78.672C29.9386 77.376 30.2746 76.356 30.9466 75.612C31.6186 74.844 32.7106 74.304 34.2226 73.992C35.7346 73.656 37.7386 73.488 40.2346 73.488H42.1426V76.296H40.2706C39.0466 76.296 38.0506 76.368 37.2826 76.512C36.5386 76.632 35.9986 76.848 35.6626 77.16C35.3506 77.472 35.1946 77.904 35.1946 78.456C35.1946 79.128 35.4226 79.68 35.8786 80.112C36.3586 80.544 37.0426 80.76 37.9306 80.76C38.6266 80.76 39.2386 80.604 39.7666 80.292C40.3186 79.956 40.7506 79.512 41.0626 78.96C41.3746 78.384 41.5306 77.736 41.5306 77.016V72.876C41.5306 71.82 41.2906 71.076 40.8106 70.644C40.3306 70.188 39.5146 69.96 38.3626 69.96C37.7146 69.96 37.0066 70.044 36.2386 70.212C35.4946 70.356 34.6666 70.608 33.7546 70.968C33.2266 71.208 32.7586 71.268 32.3506 71.148C31.9426 71.004 31.6306 70.764 31.4146 70.428C31.1986 70.068 31.0906 69.684 31.0906 69.276C31.0906 68.844 31.2106 68.436 31.4506 68.052C31.6906 67.644 32.0866 67.344 32.6386 67.152C33.7666 66.696 34.8226 66.384 35.8066 66.216C36.8146 66.048 37.7386 65.964 38.5786 65.964C40.4266 65.964 41.9386 66.24 43.1146 66.792C44.3146 67.32 45.2146 68.148 45.8146 69.276C46.4146 70.38 46.7146 71.808 46.7146 73.56V81.552C46.7146 82.44 46.4986 83.124 46.0666 83.604C45.6346 84.084 45.0106 84.324 44.1946 84.324C43.3786 84.324 42.7426 84.084 42.2866 83.604C41.8546 83.124 41.6386 82.44 41.6386 81.552V80.22L41.8906 80.436C41.7466 81.252 41.4346 81.96 40.9546 82.56C40.4986 83.136 39.9106 83.592 39.1906 83.928C38.4706 84.24 37.6426 84.396 36.7066 84.396ZM53.5056 84.324C52.6176 84.324 51.9336 84.084 51.4536 83.604C50.9976 83.124 50.7696 82.44 50.7696 81.552V68.772C50.7696 67.884 50.9976 67.212 51.4536 66.756C51.9336 66.276 52.5936 66.036 53.4336 66.036C54.2976 66.036 54.9576 66.276 55.4136 66.756C55.8696 67.212 56.0976 67.884 56.0976 68.772V70.824L55.7016 69.636C56.2536 68.46 57.0696 67.56 58.1496 66.936C59.2536 66.288 60.5016 65.964 61.8936 65.964C63.3096 65.964 64.4736 66.24 65.3856 66.792C66.2976 67.32 66.9816 68.136 67.4376 69.24C67.8936 70.32 68.1216 71.7 68.1216 73.38V81.552C68.1216 82.44 67.8816 83.124 67.4016 83.604C66.9456 84.084 66.2736 84.324 65.3856 84.324C64.5216 84.324 63.8496 84.084 63.3696 83.604C62.9136 83.124 62.6856 82.44 62.6856 81.552V73.632C62.6856 72.408 62.4576 71.532 62.0016 71.004C61.5696 70.452 60.8976 70.176 59.9856 70.176C58.8336 70.176 57.9096 70.536 57.2136 71.256C56.5416 71.976 56.2056 72.936 56.2056 74.136V81.552C56.2056 83.4 55.3056 84.324 53.5056 84.324ZM80.6758 90.876C79.3798 90.876 78.1318 90.768 76.9318 90.552C75.7558 90.336 74.7118 90.012 73.7998 89.58C73.2478 89.34 72.8518 89.028 72.6118 88.644C72.3958 88.26 72.2998 87.852 72.3238 87.42C72.3718 86.988 72.5158 86.604 72.7558 86.268C73.0198 85.932 73.3438 85.692 73.7278 85.548C74.1118 85.428 74.5198 85.464 74.9518 85.656C76.0078 86.136 76.9798 86.448 77.8678 86.592C78.7798 86.736 79.5598 86.808 80.2078 86.808C81.7438 86.808 82.8958 86.46 83.6638 85.764C84.4318 85.068 84.8158 84 84.8158 82.56V79.824H85.1398C84.7798 80.928 84.0358 81.828 82.9078 82.524C81.7798 83.22 80.5318 83.568 79.1638 83.568C77.5798 83.568 76.1998 83.208 75.0238 82.488C73.8478 81.744 72.9358 80.712 72.2878 79.392C71.6398 78.048 71.3158 76.5 71.3158 74.748C71.3158 73.428 71.4958 72.228 71.8558 71.148C72.2398 70.068 72.7678 69.144 73.4398 68.376C74.1358 67.608 74.9638 67.02 75.9238 66.612C76.9078 66.18 77.9878 65.964 79.1638 65.964C80.5798 65.964 81.8278 66.312 82.9078 67.008C84.0118 67.68 84.7438 68.568 85.1038 69.672L84.7438 70.824V68.772C84.7438 67.884 84.9718 67.212 85.4278 66.756C85.9078 66.276 86.5798 66.036 87.4438 66.036C88.3078 66.036 88.9678 66.276 89.4238 66.756C89.8798 67.212 90.1078 67.884 90.1078 68.772V81.948C90.1078 84.9 89.2918 87.12 87.6598 88.608C86.0518 90.12 83.7238 90.876 80.6758 90.876ZM80.7838 79.5C81.5998 79.5 82.2958 79.308 82.8718 78.924C83.4718 78.54 83.9398 78 84.2758 77.304C84.6118 76.584 84.7798 75.732 84.7798 74.748C84.7798 73.26 84.4078 72.108 83.6638 71.292C82.9438 70.452 81.9838 70.032 80.7838 70.032C79.9678 70.032 79.2598 70.224 78.6598 70.608C78.0598 70.968 77.5918 71.508 77.2558 72.228C76.9438 72.924 76.7878 73.764 76.7878 74.748C76.7878 76.236 77.1478 77.4 77.8678 78.24C78.5878 79.08 79.5598 79.5 80.7838 79.5ZM101.096 84.396C100.04 84.396 98.9482 84.3 97.8202 84.108C96.7162 83.916 95.7082 83.592 94.7962 83.136C94.3162 82.896 93.9682 82.596 93.7522 82.236C93.5602 81.852 93.4762 81.468 93.5002 81.084C93.5242 80.7 93.6442 80.352 93.8602 80.04C94.1002 79.728 94.4002 79.524 94.7602 79.428C95.1442 79.308 95.5642 79.344 96.0202 79.536C97.0042 79.944 97.9042 80.232 98.7202 80.4C99.5362 80.568 100.34 80.652 101.132 80.652C102.164 80.652 102.908 80.496 103.364 80.184C103.844 79.848 104.084 79.416 104.084 78.888C104.084 78.408 103.928 78.048 103.616 77.808C103.304 77.568 102.848 77.4 102.248 77.304L98.4682 76.62C96.9802 76.356 95.8282 75.816 95.0122 75C94.2202 74.16 93.8242 73.092 93.8242 71.796C93.8242 70.596 94.1602 69.564 94.8322 68.7C95.5042 67.812 96.4282 67.14 97.6042 66.684C98.8042 66.204 100.16 65.964 101.672 65.964C102.752 65.964 103.748 66.06 104.66 66.252C105.572 66.444 106.448 66.756 107.288 67.188C107.72 67.404 108.02 67.692 108.188 68.052C108.38 68.412 108.44 68.784 108.368 69.168C108.32 69.552 108.176 69.9 107.936 70.212C107.696 70.524 107.384 70.728 107 70.824C106.64 70.92 106.22 70.872 105.74 70.68C104.972 70.32 104.264 70.068 103.616 69.924C102.968 69.756 102.344 69.672 101.744 69.672C100.664 69.672 99.8842 69.852 99.4042 70.212C98.9242 70.548 98.6842 70.98 98.6842 71.508C98.6842 71.916 98.8162 72.264 99.0802 72.552C99.3682 72.816 99.8002 72.996 100.376 73.092L104.156 73.776C105.716 74.04 106.904 74.568 107.72 75.36C108.536 76.128 108.944 77.184 108.944 78.528C108.944 80.352 108.224 81.792 106.784 82.848C105.368 83.88 103.472 84.396 101.096 84.396ZM118.563 84.396C117.075 84.396 115.839 84.12 114.855 83.568C113.871 83.016 113.139 82.188 112.659 81.084C112.203 79.956 111.975 78.564 111.975 76.908V68.772C111.975 67.86 112.203 67.176 112.659 66.72C113.139 66.264 113.811 66.036 114.675 66.036C115.539 66.036 116.211 66.264 116.691 66.72C117.171 67.176 117.411 67.86 117.411 68.772V77.052C117.411 78.108 117.627 78.9 118.059 79.428C118.491 79.932 119.175 80.184 120.111 80.184C121.143 80.184 121.983 79.824 122.631 79.104C123.303 78.36 123.639 77.388 123.639 76.188V68.772C123.639 67.86 123.867 67.176 124.323 66.72C124.803 66.264 125.475 66.036 126.339 66.036C127.227 66.036 127.899 66.264 128.355 66.72C128.835 67.176 129.075 67.86 129.075 68.772V81.552C129.075 83.4 128.199 84.324 126.447 84.324C125.583 84.324 124.923 84.084 124.467 83.604C124.011 83.124 123.783 82.44 123.783 81.552V79.14L124.323 80.544C123.795 81.768 123.039 82.716 122.055 83.388C121.071 84.06 119.907 84.396 118.563 84.396ZM142.461 84.396C140.373 84.396 138.573 84.024 137.061 83.28C135.573 82.512 134.421 81.444 133.605 80.076C132.813 78.684 132.417 77.052 132.417 75.18C132.417 73.356 132.801 71.76 133.569 70.392C134.337 69 135.405 67.92 136.773 67.152C138.165 66.36 139.737 65.964 141.489 65.964C142.761 65.964 143.913 66.18 144.945 66.612C145.977 67.02 146.865 67.62 147.609 68.412C148.353 69.18 148.917 70.128 149.301 71.256C149.685 72.36 149.877 73.596 149.877 74.964C149.877 75.42 149.733 75.768 149.445 76.008C149.157 76.224 148.737 76.332 148.185 76.332H136.881V73.524H145.953L145.377 74.028C145.377 73.044 145.233 72.228 144.945 71.58C144.657 70.908 144.237 70.404 143.685 70.068C143.157 69.732 142.497 69.564 141.705 69.564C140.817 69.564 140.061 69.768 139.437 70.176C138.813 70.584 138.333 71.172 137.997 71.94C137.661 72.708 137.493 73.632 137.493 74.712V75C137.493 76.824 137.913 78.168 138.753 79.032C139.617 79.896 140.889 80.328 142.569 80.328C143.145 80.328 143.805 80.256 144.549 80.112C145.293 79.968 145.989 79.74 146.637 79.428C147.189 79.164 147.681 79.08 148.113 79.176C148.545 79.248 148.881 79.44 149.121 79.752C149.361 80.064 149.493 80.424 149.517 80.832C149.565 81.24 149.481 81.648 149.265 82.056C149.049 82.44 148.689 82.764 148.185 83.028C147.369 83.484 146.445 83.82 145.413 84.036C144.405 84.276 143.421 84.396 142.461 84.396ZM156.423 84C155.487 84 154.767 83.748 154.263 83.244C153.759 82.74 153.507 82.02 153.507 81.084V61.536C153.507 60.6 153.759 59.88 154.263 59.376C154.767 58.872 155.487 58.62 156.423 58.62H163.443C167.787 58.62 171.135 59.724 173.487 61.932C175.863 64.116 177.051 67.236 177.051 71.292C177.051 73.332 176.739 75.144 176.115 76.728C175.515 78.288 174.639 79.608 173.487 80.688C172.335 81.768 170.919 82.596 169.239 83.172C167.559 83.724 165.627 84 163.443 84H156.423ZM159.087 79.428H163.119C164.487 79.428 165.675 79.26 166.683 78.924C167.691 78.588 168.531 78.084 169.203 77.412C169.875 76.74 170.379 75.9 170.715 74.892C171.051 73.86 171.219 72.66 171.219 71.292C171.219 68.556 170.535 66.528 169.167 65.208C167.823 63.864 165.807 63.192 163.119 63.192H159.087V79.428ZM183.654 84.288C182.766 84.288 182.082 84.036 181.602 83.532C181.146 83.004 180.918 82.272 180.918 81.336V69.024C180.918 68.064 181.146 67.332 181.602 66.828C182.082 66.3 182.766 66.036 183.654 66.036C184.518 66.036 185.178 66.3 185.634 66.828C186.114 67.332 186.354 68.064 186.354 69.024V81.336C186.354 82.272 186.126 83.004 185.67 83.532C185.214 84.036 184.542 84.288 183.654 84.288ZM183.654 63.084C182.646 63.084 181.866 62.856 181.314 62.4C180.786 61.92 180.522 61.248 180.522 60.384C180.522 59.496 180.786 58.824 181.314 58.368C181.866 57.888 182.646 57.648 183.654 57.648C184.662 57.648 185.43 57.888 185.958 58.368C186.486 58.824 186.75 59.496 186.75 60.384C186.75 61.248 186.486 61.92 185.958 62.4C185.43 62.856 184.662 63.084 183.654 63.084Z" fill="white"/>
</svg>
